<?xml version="1.0" encoding="utf-8"?>
<!-- Generator: Adobe Illustrator 17.0.0, SVG Export Plug-In . SVG Version: 6.00 Build 0)  -->
<!DOCTYPE svg PUBLIC "-//W3C//DTD SVG 1.1//EN" "http://www.w3.org/Graphics/SVG/1.1/DTD/svg11.dtd">
<svg version="1.1" id="Layer_1" xmlns="http://www.w3.org/2000/svg" xmlns:xlink="http://www.w3.org/1999/xlink" x="0px" y="0px"
	 width="297.8px" height="297.8px" viewBox="0 0 297.8 297.8" enable-background="new 0 0 297.8 297.8" xml:space="preserve">
<g>
	<path fill="#FFFFFF" d="M267.7,141.3c0,65.6-53.2,118.7-118.7,118.7c-65.6,0-118.7-53.2-118.7-118.7c0-65.6,53.2-118.7,118.7-118.7
		C214.5,22.6,267.7,75.7,267.7,141.3"/>
	<path fill="#00643C" d="M160.9,73.9c-1-0.2-6-1-11.9-1c-5.9,0-10.9,0.8-11.9,1c-0.6,0.1-0.8-0.5-0.4-0.8c0.4-0.3,12.3-9.4,12.3-9.4
		s11.9,9.1,12.3,9.4C161.7,73.4,161.5,74,160.9,73.9 M140.3,132.7c0,0-0.6,0.2-0.8,0.8c2.5,1.9,4.2,6.3,9.4,6.3
		c5.2,0,6.9-4.4,9.4-6.3c-0.2-0.6-0.8-0.8-0.8-0.8s-3.3,0.8-8.6,0.8C143.6,133.5,140.3,132.7,140.3,132.7 M148.9,125.4
		c-1.4,0-1.8-0.5-2.7-0.5c-0.9,0-2.8,0.8-3.2,1.4c0,0.3,0.2,0.6,0.4,0.9c2.1,0.3,3.1,1.5,5.5,1.5c2.4,0,3.4-1.2,5.5-1.5
		c0.3-0.3,0.4-0.6,0.4-0.9c-0.4-0.7-2.2-1.4-3.2-1.4C150.7,124.8,150.4,125.4,148.9,125.4 M267.5,147.8c-0.2,2.8-0.4,5.7-0.7,8.4
		c-13.4,2.2-18.2-9.7-32-9.2c0.8,2.9,1.5,5.9,2,8.9c11.4,0,15.9,10.6,28.6,9c-0.7,3.2-1.5,6.4-2.4,9.6c-10,1-13.5-8.9-25.1-8.7
		c0.1,1.7,0.1,3.3,0.1,5c0,0.9,0,1.9-0.1,2.8c9.9-0.1,13.1,9,22.5,8.6c-1.2,3.2-2.5,6.3-3.9,9.4c-6.8-0.4-9.1-9-19.3-8.3
		c-0.3,2.2-0.7,4.4-1.2,6.6c8.9-0.6,10.8,7.6,17.2,8.2c-1.6,3-3.4,5.9-5.2,8.7c-3.8-2-7.1-8.1-14.2-8.5c0.7-2.3,1.4-4.6,1.9-6.9
		c-6.4,0-13.6-2.5-19.7-8c2-11.3-15.5-22.7-15.5-31c0-8.9,4.5-13.9,4.5-26c0-9-4.4-18.7-10.9-25.3c-1.3-1.3-2.6-2.3-4.1-3.3
		c6,7.5,10.7,16.3,10.7,26.6c0,11.4-5.3,17.4-5.3,27.9c0,10.5,15.4,19.6,15.4,30.4c0,4.3-1.4,8.4-5.8,16.6
		c6.9,6.9,15.9,10.6,21.7,10.6c1.9,0,2.9-0.6,3.6-2c0.6-1.3,1.1-2.6,1.6-3.9c6.2,0.2,9.1,5.9,12.5,8.2c-1.9,2.5-3.9,5-6,7.4
		c-2.3-2.6-5.4-6.9-10-8.1c-0.8,1.6-1.7,3.1-2.6,4.7c3.9,1.1,6.6,5,8.7,7.6c-2.2,2.3-4.6,4.5-7,6.7c-1.5-2.3-3.9-5.3-6.5-7
		c-1,1.3-2,2.6-3,3.9c2.3,1.5,4.2,4.3,5.5,6.5c-2.8,2.3-5.7,4.4-8.7,6.4c-1.5-12.1-17.9-20.3-13.5-34.3c-1.5,2.5-3.2,5.6-3.2,9.3
		c0,10.1,10.8,18.2,11.6,28.2c-2.2,1.3-4.5,2.6-6.9,3.8c-0.4-11.1-11.8-23.2-11.8-32.2c0-10.1,13.3-20.3,13.3-32.3
		c0-12-15.3-20.3-15.3-30.8c0-10.5,6.5-16.5,6.5-30c0-9.9-4.7-19.8-11.9-26.2c-1.3-1.1-2.5-2-4.1-2.8c6.8,8.2,10.8,15.6,10.8,26.9
		c0,12.7-7.5,19.7-7.5,32.1c0,12.4,15,19.3,15,30.8c0,11.5-14,21.3-14,33.2c0,10.8,12.3,21.6,12.5,34.4c-2.7,1.2-5.4,2.3-8.2,3.2
		c1.6-12.9-12.3-26.3-12.3-36.9c0-11.5,14.5-21.5,14.5-33.9s-14.7-18.2-14.7-31c0-12.8,9.1-19.9,9.1-34c0-11-5.4-20.9-13.4-27
		c-0.2-0.1-0.3-0.3-0.5-0.4c-0.7-0.6-1.4,0.1-0.8,0.8c5.6,7,8.6,14.1,8.6,24.6c0,12.9-10.4,23.4-10.4,35.9c0,14.8,14,19,14,31.1
		c0,12.1-15,21.8-15,34.7c0,11.9,14.2,25.2,11.7,38.9c-2.8,0.7-5.7,1.4-8.6,1.9c2.7-17.1-11.2-29.5-11.2-40.7
		c0-12.1,15.5-23,15.5-34.8c0-11.2-11.1-14.8-12.6-26.3c-0.2-1.6-1.5-2.7-3.2-2.4c-2.3,0.4-5.2,1.9-9.7,1.9c-4.6,0-7.4-1.5-9.7-1.9
		c-1.7-0.3-3,0.9-3.2,2.4c-1.5,11.5-12.6,15.1-12.6,26.3c0,11.9,15.5,22.7,15.5,34.8c0,11.2-13.9,23.5-11.2,40.7
		c-2.9-0.5-5.8-1.2-8.6-1.9c-2.4-13.8,11.7-27,11.7-38.9c0-12.9-15-22.6-15-34.7c0-12.1,14-16.3,14-31.1c0-12.5-10.4-23-10.4-35.9
		c0-10.5,3-17.6,8.6-24.6c0.5-0.7-0.1-1.3-0.8-0.8c-0.2,0.1-0.3,0.3-0.5,0.4c-7.9,6.1-13.4,16-13.4,27c0,14.1,9.1,21.2,9.1,34
		c0,12.8-14.7,18.6-14.7,31s14.5,22.4,14.5,33.9c0,10.6-13.9,23.9-12.3,36.9c-2.8-1-5.5-2-8.2-3.2c0.2-12.8,12.5-23.6,12.5-34.4
		c0-11.9-14-21.6-14-33.2c0-11.6,15-18.4,15-30.8c0-12.4-7.5-19.4-7.5-32.1c0-11.3,4-18.7,10.8-26.9c-1.5,0.8-2.8,1.7-4.1,2.8
		c-7.2,6.4-11.9,16.4-11.9,26.2c0,13.5,6.5,19.5,6.5,30c0,10.5-15.3,18.8-15.3,30.8c0,12,13.3,22.1,13.3,32.3
		c0,9.1-11.4,21.2-11.8,32.2c-2.3-1.2-4.6-2.4-6.9-3.8c0.9-10.1,11.7-18.1,11.7-28.2c0-3.7-1.7-6.8-3.2-9.3
		c4.4,14-12,22.3-13.5,34.3c-3-2-5.9-4.1-8.7-6.4c1.3-2.2,3.3-5,5.5-6.5c-1-1.3-2.1-2.5-3-3.9c-2.7,1.6-5,4.6-6.5,7
		c-2.4-2.1-4.8-4.4-7-6.7c2.1-2.6,4.8-6.6,8.7-7.6c-0.9-1.5-1.8-3.1-2.6-4.7c-4.6,1.2-7.7,5.5-10,8.1c-2.1-2.4-4.1-4.8-6-7.4
		c3.5-2.3,6.3-7.9,12.6-8.2c0.5,1.3,1.1,2.6,1.6,3.9c0.7,1.5,1.7,2,3.6,2c5.8,0,14.8-3.8,21.7-10.6c-4.5-8.2-5.8-12.3-5.8-16.6
		c0-10.8,15.4-19.9,15.4-30.4c0-10.5-5.3-16.5-5.3-27.9c0-10.3,4.6-19.1,10.7-26.6c-1.5,0.9-2.8,2-4.1,3.3
		c-6.6,6.6-10.9,16.4-10.9,25.3c0,12.1,4.5,17,4.5,26c0,8.3-17.5,19.7-15.5,31c-6.1,5.6-13.4,8-19.8,8c0.6,2.3,1.2,4.6,1.9,6.9
		c-7.2,0.4-10.5,6.5-14.2,8.5c-1.9-2.8-3.6-5.7-5.2-8.7c6.4-0.7,8.3-8.9,17.2-8.2c-0.5-2.2-0.9-4.4-1.2-6.6
		c-10.3-0.7-12.6,8-19.3,8.3c-1.4-3.1-2.7-6.2-3.9-9.4c9.4,0.4,12.6-8.7,22.4-8.6c0-0.9,0-1.8,0-2.8c0-1.7,0.1-3.3,0.1-5
		c-11.6-0.3-15.1,9.7-25.1,8.7c-0.9-3.1-1.7-6.3-2.4-9.6c12.6,1.6,17.2-9.1,28.6-9c0.5-3,1.2-6,2-8.9c-13.8-0.6-18.6,11.4-32,9.2
		c-0.4-2.8-0.6-5.6-0.8-8.4c15.6,1.7,21.5-11.1,35.7-9.5c1.3-3.4,2.9-6.7,4.7-9.9c-17.8-3.1-23.9,11.8-40.5,9.5
		C32,73.9,84.5,22.6,148.9,22.6c64.5,0,116.9,51.3,118.7,115.4c-16.6,2.3-22.7-12.6-40.5-9.5c1.8,3.2,3.3,6.5,4.7,9.9
		C246,136.7,251.8,149.6,267.5,147.8 M97.9,98c-8.7-3.6-19.3-2.7-28.4,3.1c-1.4-8.4-6-15.9-12.5-20.4c-0.9-0.6-1.8,0-1.8,1
		c1.4,17.8-9,33.2-21.8,46.8c13.2,4,24.4-13,41.4-7.1C81.1,112.3,88.9,104.3,97.9,98 M148.9,87.3c-11,0-20.3,6.2-22.7,14.3
		c-0.2,0.6,0.1,1,0.8,0.7c2-0.9,4.2-1.3,6.7-1.3c4.5,0,8.5,1.7,10.8,4.5c1,3.4,1.1,8.4-0.1,11.2c-1.8-0.4-2.5-1.8-4.3-1.8
		c-1.8,0-3.2,1.3-6.3,1.3c-3.1,0-3.4-1.5-5.4-1.5c-2.4,0-2.8,2.4-2.8,5.2c0,12.3,11.3,29.2,23.3,29.2c12,0,23.3-16.9,23.3-29.2
		c0-2.8-0.6-5.1-3-5.4c-1.2,0.9-2.4,1.7-5.2,1.7c-3.1,0-3.9-1.3-5.7-1.3c-2.2,0-2,4.6-4.6,4.9c-1.7-4.1-1.8-9.5-0.4-14.2
		c2.3-2.9,6.3-4.5,10.8-4.5c2.4,0,4.7,0.4,6.7,1.3c0.7,0.3,1-0.1,0.8-0.7C169.2,93.5,159.9,87.3,148.9,87.3 M166.5,104.9
		c-2.7,0-5.7,0.8-7.7,3c-0.2,0.6-0.2,1.5,0.1,2c4.8-1.6,9-1.7,11.1,0.6c1.1-1,1.4-1.9,1.4-2.9C171.4,106,169.7,104.9,166.5,104.9
		 M127.9,110.5c2.3-2.3,7.2-2.2,12.2-0.4c0.2-2.5-4.3-5.3-8.8-5.3c-3.3,0-4.9,1.1-4.9,2.7C126.5,108.6,126.8,109.5,127.9,110.5
		 M203.9,68.9c-8.7,0.6-16.3,3.6-22.4,8.6c2.6-7.4,5.9-13.8,10.1-20c-11.1,1.2-20.3,5.2-27.1,12.2l-5.3-13.9l11.7-10.4l-15.7-1.1
		l-6.3-14.6l-6.3,14.6l-15.7,1.1l11.7,10.4l-5.3,13.9c-6.8-6.9-16-11-27.1-12.2c4.2,6.2,7.5,12.7,10.1,20c-6.1-5-13.7-8-22.4-8.6
		c5.2,6.7,9.8,13.9,13.3,21.6c0.4,0.9,1.2,1.2,2.1,0.7c11.9-5.9,25.3-9.3,39.6-9.3c14.2,0,27.6,3.3,39.6,9.3
		c0.9,0.5,1.7,0.2,2.1-0.7C194,82.8,198.7,75.6,203.9,68.9 M222.9,121.4c17.1-5.9,28.3,11,41.5,7.1c-12.8-13.6-23.2-29-21.8-46.8
		c0.1-1-0.9-1.6-1.7-1c-6.5,4.5-11.1,12-12.5,20.4c-9-5.8-19.6-6.6-28.4-3.1C209,104.3,216.7,112.3,222.9,121.4"/>
	<polygon fill="#00643C" points="220.7,262.9 218.9,262.9 218.9,251.5 214.7,251.5 214.7,249.9 225,249.9 225,251.5 220.7,251.5 	
		"/>
	<polygon fill="#00643C" points="233.5,259.9 233.6,259.9 237.5,249.9 240.3,249.9 240.3,262.9 238.5,262.9 238.5,252 238.4,252 
		234.1,262.9 232.9,262.9 228.5,252 228.5,252 228.5,262.9 226.7,262.9 226.7,249.9 229.6,249.9 	"/>
</g>
</svg>
