<?xml version="1.0" standalone="no"?>
<!DOCTYPE svg PUBLIC "-//W3C//DTD SVG 1.1//EN" "http://www.w3.org/Graphics/SVG/1.1/DTD/svg11.dtd" >
<svg xmlns="http://www.w3.org/2000/svg" xmlns:xlink="http://www.w3.org/1999/xlink" version="1.1">
<metadata></metadata>
<defs>
<font id="serendipityregular" horiz-adv-x="632" >
<font-face units-per-em="2048" ascent="1638" descent="-410" />
<missing-glyph horiz-adv-x="614" />
<glyph horiz-adv-x="0" />
<glyph unicode="&#xd;" horiz-adv-x="614" />
<glyph horiz-adv-x="0" />
<glyph horiz-adv-x="0" />
<glyph unicode=" "  horiz-adv-x="614" />
<glyph unicode="&#x09;" horiz-adv-x="614" />
<glyph unicode="&#xa0;" horiz-adv-x="614" />
<glyph unicode="!" horiz-adv-x="227" d="M66 627q0 -122 2 -181v-161q0 -50 14 -70q12 -25 29.5 -26t31.5 24q14 22 17 74q0 2 3 43t5 69q2 39 10 162q14 213 17 379q4 217 -9 307q-6 37 -22 58.5t-35 21.5t-34 -20.5t-19 -57.5q-10 -95 -10 -262v-174v-186zM68 61q0 -21 13 -34t36 -13q20 0 33.5 13.5t13.5 33.5 q0 23 -13.5 37.5t-33.5 14.5q-23 0 -36 -14t-13 -38z" />
<glyph unicode="&#x22;" horiz-adv-x="538" d="M53 961q11 -142 60 -183q42 24 72 79t44 128q27 150 -12 262q-51 0 -86.5 -15.5t-75.5 -57.5q-11 -100 -2 -213zM315 961q11 -142 60 -183q84 47 112 207q27 154 -10 262q-51 0 -86.5 -15.5t-75.5 -57.5q-5 -146 0 -213z" />
<glyph unicode="#" horiz-adv-x="1144" d="M1.5 548.5q3.5 -14.5 29.5 -26.5q29 -16 141 -20l92 -6q-11 -43 -51 -199l-47 -178q-15 -52 -6 -78q9 -27 26 -27q19 0 43 27q25 32 41 82q19 68 49 149q13 37 39 116t33 99q22 -1 67 -2t68 -2l138 -6q-8 -34 -50 -188l-45 -170q-12 -53 -4 -78q6 -27 25 -27t43 27 q25 32 41 82l119 350q81 0 116 2q120 3 144 27q14 13 9.5 30.5t-26.5 30.5q-35 19 -123 23q-55 0 -86 2q26 76 29 86q11 39 27 86q77 0 112 2q113 3 138 26q15 13 11 31t-26 31q-29 16 -123 20q-51 0 -80 2q64 218 78 330q6 43 -5 66.5t-34 23.5t-46 -22.5t-40 -63.5 q-40 -116 -100 -332h-256q69 231 76 328q6 42 -6 66t-33 24t-44 -22.5t-40 -63.5q-29 -77 -100 -334h-207q-40 0 -60 -10q-19 -12 -15 -26.5t30 -26.5q20 -13 71 -16q54 0 156 -9q-16 -53 -27 -98q-15 -61 -26 -98q-39 -2 -109 -2h-98q-40 0 -62 -11q-20 -12 -16.5 -26.5z M424 588q32 88 57 186l129 -6l129 -6q-22 -79 -45 -172h-133q-90 0 -137 -2z" />
<glyph unicode="$" horiz-adv-x="706" d="M39 92q25 -60 63 -90q72 -61 232 -65q3 -40 0 -74q-2 -23 2 -76q2 -31 2 -72q0 -25 37 -34q6 15 6 47v71q-4 103 -2 140q26 14 63 24q31 5 64 25q127 71 156 211q25 139 -46 276q-81 148 -237 227l4 490q25 -4 41 -14q35 -22 61 -70q36 -74 41 -98q5 -23 17 -47 q10 -22 27 -27t59 10q9 33 -6 72q-24 68 -97 141q-60 57 -98 72q-27 9 -45 24q0 33 4 103q0 67 -10 92l-15 -4q-10 0 -10 -10q-1 -2 -1.5 -5.5t-1 -8.5t-1.5 -9q-2 -10 -2 -63q0 -46 -6 -90q-23 -1 -88 -15q-93 -22 -141 -90q-18 -27 -28.5 -64t-7 -86.5t26.5 -93.5 q56 -112 183 -206q43 -32 49 -43q5 -8 6 -54v-6q4 -132 4 -274q0 -174 -6 -273q-3 -48 -8 -53q-8 -8 -19 -8q-16 0 -32 2l-23 6q-17 4 -25 6q-23 10 -40.5 24.5t-29.5 35.5t-17.5 34t-14.5 37q-16 41 -34.5 58t-55.5 10q-29 -44 0 -115zM195 975q-18 88 10 153q34 81 135 78 l-4 -469q-35 11 -82 97q-48 83 -59 141zM381 4l2 631q74 -46 110 -124t56 -196q17 -138 -14 -206q-43 -91 -154 -105z" />
<glyph unicode="%" horiz-adv-x="1118" d="M4 -106q21 -6 45 12q41 30 88 102q20 33 31 47q57 77 119 164.5t110.5 156.5t119.5 174t108.5 160.5t117.5 177t106 161t115.5 175.5t106.5 162q47 71 47 82q-6 4 -14.5 1.5t-13 -2.5t-11.5 -6t-11 -9t-10.5 -10.5t-10 -12t-9.5 -13t-10 -13.5q-176 -253 -496 -718 t-405 -589q-11 -16 -41 -55q-18 -20 -45 -55q-48 -62 -37 -92zM258 1155q-33 -91 6 -174q36 -79 103 -104q78 -25 151 16q71 39 96 119q36 128 -36 217q-32 36 -78 53.5t-92 11.5q-48 -8 -88 -43t-62 -96zM354 1026q-6 57 6.5 112t40.5 74q57 39 91 -4q21 -26 34 -94 q7 -72 -2.5 -115.5t-52.5 -64.5q-51 -25 -80.5 3.5t-36.5 88.5zM565 248q-33 -91 6 -174q18 -38 44.5 -65.5t56.5 -37.5q81 -25 153 15q74 41 95 118q17 70 6.5 123.5t-43.5 94.5q-32 37 -77 54t-91 11q-48 -8 -88 -43t-62 -96zM659 119q-6 56 8 111t42 75q54 37 88 -2 q21 -27 34 -96q7 -72 -2.5 -115.5t-52.5 -64.5q-51 -25 -80.5 3.5t-36.5 88.5z" />
<glyph unicode="&#x26;" horiz-adv-x="1050" d="M14 123q23 -69 80.5 -113.5t138.5 -54.5q140 -19 279 29q182 62 272 223l174 -236q19 -31 80 -28q22 0 -4 37q-2 1 -2 2q-39 55 -47 67q-94 134 -127 187q-25 38 -29 53l5 28q12 106 20 154l12 88q4 27 13 72q7 34 13.5 47.5t20.5 13.5q10 -2 33 -2q19 0 29 11.5t10 27.5 q0 15 -9 29t-22 18q-48 14 -92 -37q-40 -43 -51 -100l-47 -231q-27 33 -35 47q-12 16 -104 155q-43 63 -93 152q-17 32 -20 39q95 91 135 196t12 195q-39 108 -174 119q-120 11 -184 -64q-25 -31 -35 -71t-4 -74q5 -36 25 -80q39 -86 84 -154l37 -59l-80 -64 q-152 -137 -238 -272q-127 -198 -76 -350zM154 172q-30 116 28 252q67 143 180 246q3 2 11 8t10 8l51 43q11 11 17 14q52 -70 65 -90q67 -100 137 -217q9 -17 56 -96q2 -5 7 -14.5t5.5 -11.5t1 -8.5t-1.5 -11.5l-6 -15q-52 -126 -168 -203q-126 -83 -256 -45q-53 13 -88 50 t-49 91zM359 1202.5q19 41.5 65 54.5q42 12 90 -5.5t78 -59.5q58 -84 8 -182q-43 -88 -133 -146q-20 32 -57 107q-44 90 -50 114q-20 76 -1 117.5z" />
<glyph unicode="'" horiz-adv-x="178" d="M4 979q11 -103 53 -135q84 37 111 153q27 111 -10 193q-47 1 -81.5 -10.5t-72.5 -42.5q-5 -109 0 -158z" />
<glyph unicode="(" horiz-adv-x="567" d="M-25 618q0 -171 82 -358q86 -197 219 -315q151 -135 326 -135q-132 73 -212.5 133t-131.5 131q-54 73 -77 172t-23 248q0 166 24 333q26 178 76 299q46 116 111 181q47 49 153 104q8 5 22.5 13t20 11t14.5 9.5t11.5 11t5.5 11.5t2 14.5t-4 17.5q-30 12 -87.5 -8.5 t-123.5 -69.5q-161 -119 -272 -309q-136 -233 -136 -494z" />
<glyph unicode=")" horiz-adv-x="585" d="M2 -256q140 0 262 80.5t215 216.5q86 128 135.5 278t49.5 285q0 275 -144 524q-115 198 -289 326q-72 53 -133 75.5t-92 10.5q-3 -11 -4 -19.5t2 -16t6 -12.5t12.5 -12t15 -10.5t20 -12t22.5 -13.5q120 -63 168 -109q57 -59 112 -190q54 -128 84 -322q25 -183 25 -350 q0 -155 -25.5 -261.5t-81.5 -186.5q-52 -75 -136.5 -139t-223.5 -142z" />
<glyph unicode="*" horiz-adv-x="555" d="M0 842q46 -20 53 -21q38 -8 82 6l60 17q-1 -10 -4.5 -28t-4.5 -25q-7 -30 -4 -48q3 -46 64 -49q57 -3 84 39q13 23 24 96l41 -34l8 -7q1 -1 3.5 -3t3.5 -3t4 -2t4 -2l6 -4l12 -6l10 -5t5 -3q3 -6 8 -6q6 0 12 2q9 3 37 6l6 6q15 15 12 55q-2 25 -15 53t-34 42 q-39 27 -39 28l45 31q18 11 31 24q20 20 41 93q-8 6 -20 18q-15 18 -60 18q-20 -2 -69 -12q12 76 12 99q-2 25 -33 77q-80 -3 -102 -37q-15 -23 -29 -127q-33 14 -61 33q-38 21 -56 27q-28 8 -44.5 4.5t-29.5 -25.5q-23 -43 23 -100q24 -32 70 -65q-38 -30 -64 -39 q-60 -16 -76 -47q-13 -23 -16 -76z" />
<glyph unicode="+" horiz-adv-x="831" d="M4 575q4 0 51 15q53 18 72 20q59 6 129 6q45 0 139 -4l-10 -252q4 -51 27 -100q26 -66 73 -47q1 3 -2 20l-12 33q-18 53 -20 72q-10 103 0 270q24 -1 69.5 -4t67.5 -4q90 -4 127 -4q76 0 116 55l-376 15q10 147 10 258q0 77 -53 118l-15 -374l-245 10q-52 -5 -101 -27 q-65 -30 -47 -76z" />
<glyph unicode="," horiz-adv-x="342" d="M57 104q14 -76 111 -131q11 -55 -25 -86q-35 -30 -84 -43q63 -22 113.5 1.5t79.5 80.5q28 55 31.5 122.5t-19.5 129.5q-22 65 -78 72q-53 6 -92 -33q-49 -49 -37 -113z" />
<glyph unicode="-" d="M4 530q10 -3 37 9q23 10 49 14q43 6 94 6q105 -3 211 -12q70 -4 101 -4q56 0 82 39l-472 18q-39 -5 -69 -18q-44 -18 -33 -52z" />
<glyph unicode="." horiz-adv-x="389" d="M98 117q0 -54 34.5 -88.5t88.5 -34.5q52 0 88.5 35t36.5 88q0 51 -37 86t-88 35q-53 0 -88 -35t-35 -86z" />
<glyph unicode="/" horiz-adv-x="856" d="M57 109q0 -34 18.5 -44t47.5 9q31 21 57 71q10 17 39 68.5t62.5 109.5t66.5 113q95 164 221 408q114 220 154 344q13 48 7.5 79t-25.5 40q-21 9 -49 -6t-52 -52q-28 -48 -67 -119q-101 -194 -179 -356l-192 -403q-55 -118 -86 -178q-25 -56 -23 -84z" />
<glyph unicode="0" horiz-adv-x="616" d="M23 633q-3 -260 43 -440q24 -96 69.5 -143.5t102.5 -49.5q131 -3 215 123q59 89 102 272q19 79 35 260q17 253 -31 414q-28 91 -79 146.5t-126 62.5q-94 10 -153.5 -34.5t-96.5 -137.5q-71 -170 -81 -473zM129 629v80q-3 52 0 112q0 139 29 246q34 122 104 133 q36 5 73.5 -14.5t65.5 -61.5q39 -55 58 -180q16 -107 16 -274q0 -228 -51 -400q-59 -188 -158 -188q-77 0 -110 174q-27 140 -27 373z" />
<glyph unicode="1" horiz-adv-x="417" d="M20 8q27 0 43 2h52h227q10 0 17.5 1.5t13 6.5t9 7.5t6.5 11t3.5 11t3 13t2.5 11.5l-129 4l54 1198q-25 13 -86 -25q-68 -46 -105 -102q-24 -33 -36.5 -66.5t-6.5 -50.5q3 -12 10 -15.5t15 0.5t16 13q14 14 23 41l6 18q9 22 14 32t16.5 25t30.5 30l-63 -1098l-80 -6 q-28 -4 -38 -16.5t-18 -45.5z" />
<glyph unicode="2" horiz-adv-x="786" d="M20 4q162 -3 357 4q155 5 356 2q3 8 9 23.5t8 23.5q3 10 16 45q-196 4 -291 4q-144 0 -291 3l457 780q87 152 45 268q-21 57 -77 86t-140 19q-50 -6 -105.5 -35t-101.5 -72q-47 -44 -77.5 -96.5t-34.5 -100.5q-5 -56 21 -74q22 -14 46 19q6 12 8 27q4 27 11 51 q21 81 57 129q64 94 184 107q43 6 71 -13t36 -57q17 -82 -45 -197z" />
<glyph unicode="3" horiz-adv-x="757" d="M23 238q-2 -60 28.5 -115t89.5 -80q199 -82 357 14q138 81 202 260q65 176 21 328q-23 79 -73.5 136t-127.5 81q51 51 86 111q39 67 39 139q-3 76 -33 123q-61 84 -176 65q-64 -11 -121 -45t-84 -96q-15 -47 -6.5 -71.5t33.5 -24.5q14 0 23 3t13 12.5t5 14t1.5 21 t0.5 19.5q1 27 27.5 53.5t56.5 38.5q72 28 115 -6q43 -35 48 -100.5t-30 -114.5q-57 -80 -172 -158q-41 -25 -51 -49q75 20 141 10q120 -24 170 -145q51 -132 21 -281q-15 -73 -52 -132.5t-90 -94.5q-102 -71 -221 -68q-113 0 -155 55q-13 15 -12.5 33.5t6.5 29.5t18 29 q13 16 24 41q26 53 -24 93q-43 6 -70.5 -32.5t-27.5 -96.5z" />
<glyph unicode="4" horiz-adv-x="622" d="M20 465l349 8l-19 -407h-74l-24 -3q-28 -4 -38.5 -16.5t-18.5 -44.5h41q31 0 49 2v-2l26 2h207q13 0 22.5 3t15 11.5t8 13.5t5.5 18t4 16l-69 2h-86l14 405q27 9 57 12q32 4 54 9q28 7 43 23t16 50h-170l23 482l-52 -78l-30 -400l-217 -6q10 30 75 168q75 154 117 230 q74 141 96 174q14 25 31 32q14 7 23 7q10 -4 16 -0.5t10 24.5q1 18 -9.5 29.5t-29.5 13.5q-49 0 -73 -55z" />
<glyph unicode="5" horiz-adv-x="618" d="M23 156q-6 -66 37 -106t116 -48q72 -8 153.5 18t143.5 82q153 139 117 371q-25 165 -146 227q-130 63 -311 -32l72 508h311q38 0 58.5 16.5t21.5 58.5h-465l-94 -727q69 69 146.5 105.5t144.5 32.5q69 -6 114.5 -60t55.5 -156q9 -121 -70 -245q-36 -58 -80.5 -101 t-89.5 -61q-107 -47 -162 41q-6 17 6 59q10 34 0 54q-20 29 -47 14.5t-32 -51.5z" />
<glyph unicode="6" horiz-adv-x="552" d="M31 291q34 -243 219 -285q112 -25 194 78q68 85 78 231q6 88 -23.5 158t-80.5 105q-49 36 -116 25.5t-126 -71.5q0 -65 6 -96q32 58 68.5 88.5t68 28.5t58.5 -25q39 -41 48 -130t-24 -222q-19 -68 -39 -88q-20 -23 -43 -20q-133 19 -172 206q-31 130 0 365q16 136 58 281 q33 115 65 174q54 100 131 108q21 3 39 -6q22 -11 37 -16q13 -6 21.5 -7t16.5 4.5t13 20.5q11 33 -22 51q-27 15 -70 15q-138 -13 -211 -125q-38 -58 -78.5 -157t-70.5 -214q-72 -279 -45 -477z" />
<glyph unicode="7" horiz-adv-x="583" d="M20 14h82l461 1237l-510 2q1 -42 22.5 -58.5t59.5 -16.5h287q-76 -230 -94 -281q-123 -360 -209 -602z" />
<glyph unicode="8" horiz-adv-x="573" d="M47 57q30 -35 80.5 -51.5t108.5 -13.5q121 7 182 74q67 73 102.5 168t32.5 192q-7 213 -186 330l77 178q56 123 5 227q-45 81 -115 90q-90 12 -149.5 -36.5t-75.5 -131.5q-16 -85 16 -177.5t113 -164.5l-56 -116q-54 -95 -114 -256q-82 -234 -21 -312zM137 147 q-14 89 35 205l31 76q39 91 43 102q57 132 80 158q61 -30 98.5 -85t50.5 -124q25 -142 -29 -266q-59 -134 -161 -154q-131 -22 -148 88zM172 1096q18 51 59 78.5t80 21.5q48 -11 56 -68q10 -67 -39 -182l-58 -133q-149 149 -98 283z" />
<glyph unicode="9" horiz-adv-x="550" d="M25 70q-11 -35 22 -54q25 -15 68 -12q136 10 213 123q80 118 149 371q73 279 45 479q-33 243 -221 285q-117 23 -195 -78q-66 -86 -77 -234q-6 -88 23.5 -156.5t82.5 -103.5q47 -36 114 -26t126 71q0 65 -6 96q-30 -58 -66.5 -89t-68 -29t-58.5 26q-41 39 -50 128t24 225 q19 68 38 90q21 21 43 18q75 -12 115 -67q80 -111 74 -318q-6 -193 -43 -354q-21 -93 -55 -199q-9 -28 -39 -90q-59 -101 -133 -109q-16 -2 -39 9q-5 2 -17 7.5t-18 8.5q-18 8 -31 5.5t-20 -23.5z" />
<glyph unicode=":" horiz-adv-x="303" d="M0 150q0 -63 45 -107.5t107 -44.5t106.5 44.5t44.5 107.5q0 61 -44.5 105t-106.5 44t-107 -44t-45 -105zM0 825q0 -61 45 -105t107 -44t106.5 44t44.5 105q0 63 -44.5 108.5t-106.5 45.5t-107 -45.5t-45 -108.5z" />
<glyph unicode=";" horiz-adv-x="335" d="M0 807q0 -66 45 -111t111 -45q63 0 108 45t45 111t-45 112t-108 46q-66 0 -111 -46t-45 -112zM35 -137q84 -29 150.5 3t105.5 107q37 72 42.5 161.5t-24.5 172.5q-31 86 -104 96q-66 9 -123 -45q-27 -27 -40.5 -66.5t-6.5 -80.5q14 -102 147 -178q15 -72 -32 -115 q-39 -37 -115 -55z" />
<glyph unicode="&#x3c;" horiz-adv-x="1259" d="M74 621q3 3 51 34q155 96 301 181l203 114q219 128 381 215q104 59 129 72q53 27 57 27q3 -72 -160 -197q-115 -86 -356 -225q-35 -20 -186 -105q-26 -15 -80.5 -45t-79.5 -45q40 -36 241 -141q225 -122 332 -209q172 -144 185 -270q-4 14 -45 47q-55 43 -271 180 q-166 105 -364 213q-193 105 -281 143q-50 18 -57 11z" />
<glyph unicode="=" horiz-adv-x="905" d="M4 526q7 -2 23 4q6 1 17.5 5.5t14.5 5.5q38 13 41 14q13 4 39 8q65 9 144 6q106 -2 327 -14q83 -6 154 -6q86 0 125 57l-727 27q-49 0 -107 -25q-68 -33 -51 -82zM18 768q15 -3 58 16q47 21 78 23q95 11 305 0q222 -16 319 -16q80 0 127 59l-729 29q-53 -4 -106 -27 q-70 -34 -52 -84z" />
<glyph unicode="&#x3e;" horiz-adv-x="1230" d="M2 1346q0 -73 172 -205q136 -104 375 -240l366 -207q-32 -29 -100 -65l-156 -82q-231 -122 -350 -221q-181 -147 -200 -289q3 12 49 49q99 76 286 193q161 100 387 225q196 108 299 149q51 18 58 11q-1 3 -55 38l-318 191l-213.5 122t-212.5 122q-101 58 -326 180 q-60 29 -61 29z" />
<glyph unicode="?" horiz-adv-x="614" d="M4 1034q-13 -105 31 -178q78 -7 103.5 26.5t-5.5 102.5q-24 56 -27 98q-1 42 37 100t78 77q72 31 144 -48q100 -114 120 -225q23 -131 -45 -244q-60 -104 -159 -196q-59 -59 -86 -88q-65 -77 -97 -160q-42 -110 -22 -221q3 -33 24 -45q21 -14 49.5 4.5t22.5 42.5 q-4 13 -8 51q-3 87 43 166q18 30 38.5 59.5t52.5 68.5t46.5 56t59.5 68.5t53 60.5q155 175 155 359q0 104 -73 223q-42 68 -104.5 109t-129.5 47q-69 5 -132.5 -30t-106.5 -108q-53 -82 -62 -176zM82 -139q0 -23 14 -37t35 -14q23 0 37 14t14 37q0 21 -14 35t-37 14 q-20 0 -34.5 -14.5t-14.5 -34.5z" />
<glyph unicode="@" horiz-adv-x="1230" d="M4 590q-23 -275 176 -504q38 -44 101 -88.5t129 -73.5q232 -104 428 -71q74 13 126 46.5t78 75.5q24 37 18.5 67t-40.5 36q-56 7 -143 -58q-91 -58 -205 -61q-237 -3 -416 170q-86 83 -131 198.5t-39 229.5q12 221 160 399q146 176 332 228q175 50 307 -33 q107 -67 174 -211q53 -122 53 -266q0 -62 -12 -121q-29 -122 -105 -186q-135 -110 -198 -7q-45 73 -41 240q8 125 4 307q-92 22 -169.5 -11.5t-135.5 -107.5q-53 -68 -82 -156t-27 -169q0 -83 36 -140.5t103 -64.5q90 -11 142 41q11 12 22 29t15.5 25.5t18 36.5t15.5 32 q33 -102 74 -133q52 -44 148 -15q66 20 139 72q93 69 135.5 172.5t36.5 222.5q-8 115 -58.5 223t-134.5 187q-89 84 -202.5 118.5t-241.5 6.5q-108 -23 -209.5 -86t-181.5 -156q-84 -95 -136.5 -209t-62.5 -235zM436 545q0 122 76 221q79 102 193 88q7 -31 0 -145 q-6 -98 -19 -146q-27 -111 -74 -164q-46 -54 -85 -52.5t-64 52.5q-27 47 -27 146z" />
<glyph unicode="A" horiz-adv-x="1404" d="M23 117q-21 -89 -21 -166q0 -147 76 -254q31 -48 75.5 -74t90.5 -26h5q97 0 167 104q78 121 159 356q21 61 42.5 130t44 144t32.5 109q1 2 39 129q15 49 25 49q73 0 151 -25t140 -61v-118q-2 -32 -1.5 -63t1.5 -62q0 -145 18 -230q16 -95 84 -163q74 -74 174 -74h61 q25 0 70 31q39 27 39 53v9q0 39 -8.5 50.5t-50.5 11.5q-13 0 -25 -7t-18 -13t-19 -20q-37 -41 -78 -41q-52 0 -85 50q-29 45 -29 116v18l43 1335q6 39 8 53q4 40 4 60q0 71 -41 71q-30 0 -74 -47q-38 -40 -94 -127q-98 -158 -192 -370q-90 -199 -129 -336q-243 0 -443 -187 q-182 -173 -241 -415zM154 -184q-15 52 -14 117q0 88 26 200q48 202 170 338q136 156 336 156q-37 -145 -113 -361q-102 -293 -184 -440q-17 -33 -56 -78q-42 -46 -77 -46q-22 0 -41 17q-29 26 -47 97zM778 705q11 44 39 110q49 117 131 268q78 147 123 213q21 34 31 41 l-47 -708q-59 36 -121 51q-76 18 -156 25z" />
<glyph unicode="B" horiz-adv-x="1236" d="M2 -88q-2 -29 -2 -45t2 -19q43 0 74 46q23 38 33 98q18 112 28 182q36 259 62 473q27 227 28 234q29 230 52 301q14 45 77 123q53 61 95 104q102 102 195 102q29 0 56 -10q93 -33 144 -160q39 -97 39 -203q0 -23 -2 -46q-10 -134 -72 -181q-67 0 -136 -36t-120 -93 q-53 -58 -78 -123q-15 -39 -15 -74q0 -24 7 -46q30 -19 59 -19q9 0 19 2q71 11 155 105q60 65 136 164q21 29 49 57q78 -21 117 -117q21 -57 21 -136q0 -40 -5 -85q-23 -154 -162 -303q-63 -68 -136 -117.5t-140 -69.5q-41 -14 -80 -14q-24 0 -48 6q-60 15 -92 70 q-38 69 -75 88q-25 11 -43 11q-13 0 -23 -5q-27 -15 -27 -53.5t35 -83.5q39 -45 66 -62q72 -55 185 -55q59 0 130 15q207 45 365 188q212 195 211 391v21q-13 213 -281 366q69 121 84 285q4 46 5 88q0 128 -42 219q-69 144 -217 147h-9q-121 0 -237 -79q-128 -88 -204 -234 q0 26 6 53q1 9 4 25.5t4 22.5q1 10 1 19q0 38 -24 62h-3q-27 0 -50 -49q-29 -64 -47 -131q-43 -147 -72 -366q-10 -72 -23.5 -166.5t-14.5 -104.5q-9 -75 -11 -94q-20 -189 -30 -356q-8 -96 -15 -189q-2 -35 -8 -143zM600 637q-8 30 -8 57q0 58 39 99q48 51 147 61 q-1 -5 -26 -49q-55 -87 -109 -141q-27 -30 -43 -27z" />
<glyph unicode="C" horiz-adv-x="1118" d="M23 709q-16 -107 -16 -205q0 -223 85 -398q107 -213 311 -229q18 -1 36 -1q179 0 366 134l67 45q115 71 175 152q19 26 19 52t-12.5 40.5t-27.5 11.5q-35 -10 -80 -78q-3 -6 -22 -34q-26 -51 -64 -74q-7 -5 -23 -15.5t-30.5 -21t-28.5 -20.5q-175 -123 -300 -123 q-53 0 -97 22q-130 66 -168 301q-16 93 -16 195q0 134 28 285q6 40 33 120q56 176 152 361q107 206 219 282q37 25 77 26h4q38 0 64 -15q28 -16 43 -41q25 -41 25 -96q0 -32 -8 -68q-13 -55 -52 -150q-12 -27 -12 -34q0 -25 28.5 -31.5t51.5 8.5q27 12 72 119q43 101 43 164 v8q-1 45 -32 88.5t-81 75.5q-83 49 -166 49q-30 0 -59 -6q-106 -20 -204.5 -101.5t-180.5 -208.5q-171 -261 -219 -589z" />
<glyph unicode="D" horiz-adv-x="1052" d="M25 1454q18 -9 32 1.5t31 35.5q13 19 20 28.5t22.5 21.5t31.5 15q40 -15 49 -100q4 -41 4 -93q0 -154 -37 -405q-54 -366 -84 -618q-20 -151 -20 -249q0 -104 22 -150q12 -29 37 -29q17 0 41 14q4 9 4 28q0 23 -6 60q-6 39 -7 74q0 29 5 55l92 684q7 90 29 230 q20 150 26 219q3 39 2 60v16q-4 35 -2 49q1 20 14 36.5t46 41.5q44 31 100 53q46 17 88 17q54 0 103 -27q47 -26 88 -84t63 -140q36 -132 36 -291q0 -45 -3 -92q-12 -212 -47 -380q-2 -12 -7 -35t-7 -33t-6 -29t-7 -27.5t-7 -23t-8 -23t-9 -18.5t-10.5 -18t-12.5 -15 q-60 -60 -160 -104q-69 -31 -88 -41q-99 -53 -161 -109.5t-82 -105.5q-11 -25 -11 -45q0 -18 8 -33q18 -32 68 -33q11 -1 21 -1q150 0 319 143q76 64 134.5 144t88.5 157q15 10 21 16q24 24 24 39q0 8 -10 8q52 189 82 375q35 213 35 374q0 52 -4 99q-20 249 -148 363 q-98 84 -206 84q-39 0 -80 -11q-102 -28 -269 -141q0 1 -8.5 20t-13.5 31q-12 28 -29 51q-28 35 -64 35q-21 0 -46 -12q-46 -20 -99 -70q-39 -39 -39 -66q0 -15 11 -26zM362 -4q-5 13 5 33t34 39l295 165q-13 -31 -22 -43q-24 -40 -76 -88q-20 -18 -88 -67q-81 -56 -118 -56 q-4 0 -7 1q-20 3 -23 16z" />
<glyph unicode="E" horiz-adv-x="983" d="M7 105q3 -60 33 -112t85 -85q59 -33 140 -33q3 1 7 1q86 2 189 32q207 63 344 170q60 45 88 106q17 36 17 67.5t-17 59.5q-7 2 -13 2q-32 0 -55 -49l-9 -18t-11 -21t-11 -19.5t-14 -23t-15.5 -20t-19.5 -21.5q-74 -74 -213 -137q-104 -47 -173 -48q-32 0 -56 11 q-55 22 -80 93q-21 59 -21 140q0 16 1 33q3 95 67 238q56 124 146 211q10 -2 30 -10l33 -13q39 -9 72 -12q30 -3 41 8q4 3 -4 11l-17 10q-33 17 -45 26q-114 77 -155 193q-22 58 -21 159v33q9 201 131 334q53 57 115 87q53 25 99 25q8 0 16 -1q55 -5 87.5 -45.5t32.5 -116.5 q0 -40 -8 -67q-4 -15 -10 -54q-2 -27 8 -38t45 -11q36 78 36 146v6q-2 71 -38 127q-38 55 -104 81q-45 18 -97 19q-24 0 -49 -4q-179 -23 -295 -172q-106 -136 -122 -313q-3 -33 -3 -64q0 -93 29 -164q44 -111 137 -149q-121 -71 -215 -205q-101 -144 -127 -275 q-12 -56 -12 -107q0 -10 1 -21z" />
<glyph unicode="F" horiz-adv-x="800" d="M2 1395q-3 -43 31 -19q15 8 37 33q16 22 53 43q67 35 187 35q49 0 106 -6q-61 -107 -92.5 -173.5t-49.5 -133.5q-29 -113 -38 -388q-67 -16 -132 -81q-64 -67 -64 -114q0 -5 1 -11q6 0 11.5 2t10 4t10.5 7.5t9.5 9t9.5 11.5l9 12t10 13.5t10 13.5q52 71 119 78 q2 -39 18 -203l12 -125q2 -24 6.5 -67t6.5 -60q6 -53 10 -157v-12q0 -102 -33 -162q-22 -35 -61 -49q-21 -11 -35 -27q6 -41 35 -51q13 -5 27 -5q51 0 114 70q40 43 69.5 126.5t30.5 168.5v15q0 126 -32 325q-12 64 -12 141q0 16 1 33q42 -13 95 -41q47 -24 110 -33 q9 -1 18 -1q37 1 73 17q44 20 71 71q-13 10 -29 0q-22 -11 -59 -11q-70 0 -164 41q-74 32 -117 56q-3 43 -3 85q0 148 36 279q52 188 143 270q4 3 22.5 3t51.5 -3q65 -6 152 -6h30q215 0 322 54q26 10 63 38.5t54 61.5q8 19 2 41q-6 19 -21.5 28.5t-34.5 6.5q-30 -4 -84 -84 q-22 -29 -51 -43q-55 -28 -121 -31q-30 -2 -64 -3q-103 0 -245 23q-135 20 -166 23q-95 12 -169 12q-80 0 -134 -14q-62 -19 -110 -53q-64 -45 -66 -84z" />
<glyph unicode="G" horiz-adv-x="1107" d="M0 698q0 -100 33 -212t94 -212q64 -108 149.5 -183.5t184.5 -100.5q65 -17 124 -17q121 0 212 72q118 89 186 279q55 152 66 348v65q28 -6 52 -6q42 0 68 19q13 8 25 27.5t12 33.5q0 13 -16 23q-13 5 -60 -11q-39 -16 -76 -16q-34 0 -67 14q-5 2 -29 10.5t-34.5 11.5 t-31.5 7t-40 4q-59 0 -102 -51q-27 -34 -27 -60q0 -12 6 -22q7 -15 27 -16t51 16q3 2 14 7t15 7q13 8 53 8q24 0 31 -38q4 -23 4 -72v-12q0 -108 -52 -236q-60 -147 -157 -215q-78 -55 -162 -55q-45 0 -92 16q-162 55 -230 221q-57 130 -57 318q0 402 133 600 q107 159 277 170q13 1 26 1q91 0 166 -55q84 -61 84 -139q-21 -43 -21 -72q0 -10 3 -19q10 -33 43 -38h4q35 0 59 30q22 27 22 76q0 11 -1 23q0 21 -13 60q-35 114 -137 178q-93 55 -218 55h-13q-104 -6 -207.5 -60t-185.5 -153q-195 -232 -195 -629z" />
<glyph unicode="H" horiz-adv-x="1015" d="M10 145q-4 -33 -4 -62q0 -138 82 -194q43 -34 93 -34q12 0 24 2q99 9 168 98q65 84 65 182q1 41 2 122.5t2 121.5q0 80 4 244q48 50 119 56q10 1 21 1q69 0 190 -33q9 -95 9 -195q0 -27 -1 -55q-3 -56 -3 -111q0 -73 5 -143q11 -176 91 -241q31 -26 69 -28h10q31 0 52 13 q27 13 40 32t1 36q-7 7 -37 -10q-7 -7 -23 -15q-24 -15 -39 5q-5 5 -16 38q-33 111 -33 330q0 156 12 332q29 -10 37 -23q15 -25 25 -39q11 -6 21 -1t10 18q-22 48 -56 78q-32 25 -37 39q11 247 13 409q0 64 12 150q15 105 43 143q7 17 20 33q11 11 27 35q15 22 15 38 q0 14 -11 25q-15 15 -31 15q-31 0 -69 -54q-48 -64 -88 -190q-33 -98 -33 -161q0 -14 2 -26q-1 -32 -4 -97.5t-4 -100.5q-4 -69 -8 -199q-122 27 -164 27q-61 0 -182 -37q-2 125 -2 375v376q-19 64 -55 75q-9 3 -18 3l-54 -26q-70 -59 -129 -195q-13 -34 -19 -53 q-7 -27 0.5 -42t22.5 -15q14 0 23 12t2 31q-4 18 -3 33q0 23 10 43q17 32 60 75q15 18 33 29q15 9 18 6q1 -75 1 -143q0 -136 -5 -244q-7 -146 -7 -292q0 -49 1 -97q-103 -26 -205 -195q-97 -164 -115 -330zM78 213q24 139 94 250q79 124 162 139v-438q0 -119 -70 -172 q-28 -22 -58 -23q-43 0 -91 45q-44 42 -44 126q0 33 7 73z" />
<glyph unicode="I" horiz-adv-x="423" d="M6.5 9q-11.5 -14 3.5 -32q35 -35 119 -45q13 -2 26 -2q50 0 91 25q23 13 49 16q7 2 13.5 2.5t12 0t9.5 -1t8.5 -3t6.5 -3.5l7 -3.5t6 -3.5q16 -12 35 -12q13 0 27 6q3 15 3 27q0 40 -36 47q-8 2 -21 2q-28 0 -79 -9q-1 10 -1.5 25.5t-1 40t-1.5 43.5q-1 27 -2 86t-2 90 l-7 219q-3 213 -3 351q0 69 1 120q0 215 17 351q6 60 18 69l94 23q3 15 3 25q0 27 -21 32q-8 2 -20 2q-45 0 -152 -20q-19 -3 -34 -3q-29 0 -46 11q-20 12 -27 24q-13 13 -32 13t-28 -15t-3 -34q16 -50 104 -58q-6 -90 -6 -236q0 -192 10 -481q6 -144 6 -311v-48 q-1 -194 -16 -331q-31 0 -71 12q-25 5 -31 5q-17 -2 -28.5 -16z" />
<glyph unicode="J" horiz-adv-x="909" d="M-12 -479q-3 -23 -3 -43q0 -62 32 -100q43 -52 149 -52q143 11 270 125q98 88 187 240q153 257 153 547v32q27 19 58 43q26 22 55 43q45 31 63 50t25 45q0 23 -10 26q-11 4 -27.5 -5t-28.5 -23q-3 -4 -26 -27l-58 -37q-11 -7 -31.5 -19.5t-21.5 -13.5v1221 q-151 -99 -268 -166q-27 -12 -33.5 -30t4.5 -27q8 -13 25 -11.5t28 19.5q19 42 50 59l36 21q3 1 17 8.5t22 11.5l7 -1132q-243 -145 -447 -389q-200 -244 -227 -416zM90 -494v7q0 65 51 168q45 89 88 135q68 81 205 211q137 131 223 182q-12 -113 -41 -219 q-37 -137 -88 -258q-52 -107 -131 -203q-102 -124 -188 -124q-7 0 -14 1q-102 11 -105 100z" />
<glyph unicode="K" horiz-adv-x="1062" d="M2 61q0 -65 51 -110q51 -47 115 -59q18 -3 37 -3q45 0 90 21q98 46 102 244v29q0 92 -10 231q-2 29 -1.5 55t1.5 49q5 43 16.5 65.5t38.5 26.5q62 -7 105 -102q78 -170 115 -246q96 -196 147 -282q82 -145 141 -189q32 -25 88 -39q41 -10 79 -9q14 0 28 1q35 1 58 19 t30 42q5 23 -7.5 38.5t-41.5 15.5q-31 0 -47 -13q-17 -14 -39 -13t-49 22t-80 92q-11 15 -31 53q-34 66 -49 98q-22 43 -67.5 135.5t-61.5 124.5q-76 152 -127 238l-12 18q-15 25 -35 45q-33 23 -64 23q-12 -2 -39 -2q29 57 111 197l76 131q82 145 135 225q7 10 12.5 17.5 t9 13t9 11l8 8t8.5 7t8.5 6t11.5 7t13 8.5t25.5 17t33.5 22q74 51 76 73q-26 36 -59 36q-17 0 -35 -9q-102 -54 -252 -295q-60 -98 -232 -412q-26 -49 -69 -120q-2 18 -2 108q-4 208 -4 387q-1 64 -2.5 131t-3.5 131t-3 86q-1 11 -1 28l-3 28l-186 -107q-6 -2 -18 -10 q-11 -7 -19 -10q-26 -15 -29 -29q-3 -15 4.5 -25t22.5 -10t25 19q1 2 10 16l8 12q13 7 51 31q4 3 8 5.5t9.5 5.5t9.5 5l14 -958q-23 -41 -63 -84l-88 -100q-111 -132 -111 -222zM106 115v12q0 64 29 104q51 64 72 86q20 26 43 52q8 8 16.5 17.5t9.5 10.5q4 -47 4 -96 q0 -24 -1 -49q-6 -71 -9 -146q0 -23 -4 -73q-4 -48 -18 -62q-19 -14 -39 -13q-11 0 -22 3q-32 11 -48 35q-33 44 -33 119z" />
<glyph unicode="L" horiz-adv-x="821" d="M27 -168q-27 -58 -27 -104q0 -58 43 -97q79 -79 161 -79q29 0 58 10q98 33 182 155q72 108 111 238q27 -6 82 -61q68 -72 223 -271q54 -72 76 -100q114 -138 242 -138q12 0 24 1q58 4 110 34t89 72q34 38 44 78.5t-9 60.5q-16 22 -35 27t-36.5 -2t-43.5 -25 q-29 -18 -76 -49q-55 -34 -105 -33q-44 0 -83 25q-86 56 -189 203l-94 135q-42 57 -67.5 90t-61.5 73t-67 64l14 1000q0 67 -2 112q-7 150 -53 238q-29 54 -89 54q-25 0 -55 -9q-73 -26 -127 -76q-36 -34 -36 -59q0 -15 12 -27q18 -18 39 -11.5t32 28.5q5 10 25 38 q33 55 86 64q46 -69 53 -356q1 -60 1 -125q0 -195 -13 -435q-14 -249 -35 -428q-98 -3 -225 -104q-128 -100 -178 -211zM170 -171q6 60 45 114q37 53 93 85q55 31 112 31h4q1 -24 1 -48q0 -134 -48 -234q-12 -20 -31 -39q-54 -57 -104 -57q-26 0 -45 28q-28 51 -28 102 q0 9 1 18z" />
<glyph unicode="M" horiz-adv-x="1538" d="M12 92q-13 -62 -13 -115q0 -92 40 -153q33 -51 110 -69q27 -6 50 -6q45 0 80 22q93 63 120 270q12 113 12 240q0 67 -3 139q-6 82 -9 149q-3 100 -6 152q-1 16 -1 32q0 81 26 146q34 85 92 207t121 207q29 39 47 39h2q11 -31 14 -99q0 -102 -18 -338q-9 -104 -12 -198 q-3 -61 -3 -115q0 -141 19 -235q14 -72 46 -110q29 -34 72 -34h9q2 3 1.5 22t-1.5 54q-4 174 -12 391q-3 105 -3 172q0 33 1 56q0 253 22 301q16 40 76 100q59 63 104 63q44 -21 68 -96q46 -141 53 -405q1 -59 1 -130q0 -142 -5 -329q-4 -136 -4 -164q0 -205 20 -287 q28 -118 129 -188q76 -56 137 -56q39 0 72 23q34 22 53 61t19 78q0 38 -17 58.5t-48 9.5l-58 -156q-64 6 -100 54q-64 90 -64 260q0 100 -2 143q-3 56 -3 116v24q0 50 2 106q2 70 3.5 115.5t5.5 128.5t5 116q4 98 4 146q-3 154 -43 264q-23 64 -73.5 124.5t-98.5 71.5 q-15 3 -29 3q-79 0 -152 -87q-54 -62 -75 -83l-60 139q-18 8 -36 7.5t-35 -7.5q-66 -25 -132 -125q-28 -40 -108 -172q-16 -31 -41 -60q-1 9 -1 21q0 28 5 72q1 17 4 55.5t4 60.5q2 35 2 65q0 100 -18 157q-21 66 -78 66q-23 0 -51 -11q-11 -4 -39 -29q-53 -50 -88 -106 q-16 -29 -15.5 -56t13.5 -37q9 -9 24 0q15 11 29 31q34 43 59 82q6 12 15 21q26 -44 26 -240q0 -56 -4 -154q-4 -102 -4 -118q-1 -19 -2 -57t-2 -54q-5 -70 -20 -129q-4 -13 -45 -109q-22 -52 -37 -88l-49 -122q-64 -153 -99 -314zM109 10q5 59 47 191q2 6 22.5 73t32.5 111 q36 130 57 160q2 -93 13 -215q8 -145 10 -215q0 -149 -17 -203q-28 -87 -115 -87q-10 0 -20 1q-33 55 -33 133q0 24 3 51z" />
<glyph unicode="N" horiz-adv-x="1118" d="M12 1368q14 -16 24.5 -20t19 4t13 17t13.5 30q9 24 14 34.5t16.5 30.5t27 30.5t34.5 14.5q9 -34 12 -100q9 -135 9 -332q-1 -70 -4.5 -189t-4.5 -157q-2 -51 -2 -121q-2 -82 -14 -217q-11 -91 -14 -213v-53q0 -80 8 -115q6 -36 35 -69q34 -42 67 -58q11 -6 19 -6 q20 0 22 35q1 9 1 20q0 39 -9 99q-4 40 -4 55q4 82 8 123q8 82 10 121q15 184 15 508q0 157 14 200q3 8 6.5 16.5t6 14.5t8.5 17t9.5 16t12.5 19t12.5 19.5t15.5 24t17 25.5q51 72 53 76q15 24 64 86q78 95 143 114q61 -16 90 -61q51 -77 51 -238q0 -71 3 -139q2 -64 2 -127 q0 -95 -5 -188q-7 -117 -7 -236q0 -40 1 -80q0 -55 9 -131q17 -179 61 -307q45 -131 141 -151q30 -8 59 -8q62 0 115 36q80 54 80 121q0 30 -28 55q-15 -1 -26 -9t-15.5 -15.5t-14.5 -24.5q-1 -2 -7 -13.5t-8 -16t-8.5 -14.5t-11 -16t-12.5 -14t-16 -14q-6 0 -11 -1 q-43 0 -73 22q-63 48 -82 170q-16 99 -16 227v96q0 51 -5 393q-2 104 -2 203t2 195q0 132 -20 225q-31 123 -94 170q-40 30 -90 30q-46 0 -101 -26q-75 -34 -180 -168q-90 -115 -145 -227q-2 27 -2 100q0 78 -2 117q-4 138 -43 190q-22 28 -55 28q-43 0 -105 -48 q-14 -9 -39 -34.5t-45 -53.5q-35 -49 -35 -83q0 -20 12 -34z" />
<glyph unicode="O" horiz-adv-x="1112" d="M52 622q1 -134 32 -257q44 -176 140.5 -295t215.5 -152q40 -11 79 -11q55 0 111 22q94 37 177 141q186 235 252 757q8 65 9 130q0 112 -26 223q-44 189 -159 301q-62 58 -115 58q-32 0 -61 -21q-33 -24 -54 -74t-24 -111q-1 -12 -1 -24q0 -123 66 -211q27 -36 59 -55 t56 -18t43 11q17 12 21.5 30t-10.5 41t-50 42q-67 39 -80 133q-3 22 -3 42q0 72 38 128q60 -13 98 -92t52 -205q10 -87 10 -180q0 -176 -35 -375q-59 -318 -174 -481q-86 -118 -182 -118q-57 0 -119 42q-56 40 -111 150q-56 105 -78 196q-29 132 -29 262q0 181 56 359 q66 217 195 376q56 69 115.5 114t111.5 59q-38 18 -79 18q-57 0 -120 -35q-87 -46 -172 -153q-74 -89 -106 -162q-76 -156 -113 -314q-36 -154 -36 -284v-7z" />
<glyph unicode="P" horiz-adv-x="991" d="M8 1348q14 3 29.5 16t22 21t22.5 30q12 15 20 22t20 7t25 -12l-10 -1780l-88 -41q6 -51 43 -51q10 0 21 4q41 13 100 76q50 56 59 108q6 38 6 72q0 28 -4 53q-9 61 -12 139q-7 340 -7 589q0 207 5 351q0 4 4 90q10 147 25 265q6 58 12 73q12 34 119 105t176 71 q106 0 164 -137q52 -121 55 -291v-26q0 -152 -33 -240q-8 -21 -19 -53t-15 -43q-13 -37 -35 -74q-34 -58 -119 -106q-47 -28 -85 -28q-51 0 -83 52q-29 48 -64 70q-15 8 -26 8q-26 0 -35 -41q-3 -12 -3 -23q0 -28 18 -53q26 -35 73 -57q61 -28 125 -28q45 0 90 14 q112 34 164 78q45 35 102 129q100 159 119 372q3 39 3 77q0 169 -70 292q-101 171 -306 174h-19q-47 0 -85 -12q-74 -23 -152 -86q-36 -28 -67 -47q-12 15 -27 36q-15 22 -37 37q-21 11 -43 11q-38 0 -80 -33q-48 -42 -75 -80q-31 -43 -31 -73q0 -15 8 -27z" />
<glyph unicode="Q" horiz-adv-x="1384" d="M-17 720q8 -124 44 -222q37 -103 97 -160q57 -53 133 -53h11q-11 41 -30 77q-18 29 -41 74q-52 98 -68 217q-12 76 -12 155q0 126 30 259q53 247 177 377q108 113 246 113q51 0 106 -15q100 -26 179 -107t130 -202q50 -119 69 -257q11 -74 11 -147q0 -64 -8 -127 q-39 -310 -211 -479q-76 19 -121 39q-50 22 -94 31q-37 8 -81 8q-83 0 -192 -27q-45 -11 -93.5 -42t-84.5 -74q-38 -46 -56 -106q-10 -35 -10 -71q0 -24 5 -49q21 -107 166 -118q13 -1 26 -1q47 0 97 11q64 15 114 41q85 48 185 117q106 70 167 100q74 -48 189 -184 q9 -11 40.5 -47.5t49.5 -55.5q53 -59 105 -94t124 -45q25 -3 50 -3q51 0 101 13q74 21 132 66q35 27 55.5 62.5t21 64.5t-10.5 53q-15 21 -40 21q-9 0 -19 -3q-40 -10 -56 -43q-11 -25 -39 -57q-57 -63 -107 -72q-11 -2 -21 -2q-83 0 -169 97l-96 106q-61 66 -115.5 110.5 t-114.5 65.5q4 15 23 41l78 82q15 15 35 47q147 249 165 543q3 42 3 83q0 263 -113 447q-148 239 -455 262q-24 2 -47 2q-255 0 -432 -192q-160 -174 -213 -473q-17 -98 -17 -192q0 -32 2 -65zM315 25q-5 16 -5 31q0 49 48 100q52 58 113 69q32 6 67 6q108 0 242 -59 q-13 -17 -41 -39q-54 -42 -80 -59q-130 -80 -206 -99q-31 -7 -55 -7q-67 0 -83 57z" />
<glyph unicode="R" horiz-adv-x="1062" d="M4 39q3 -42 20.5 -77t47.5 -46q23 -9 45 -9q44 0 88 32q30 21 42.5 48t18.5 79q14 118 17 245q4 188 4 260v88v50.5v48v40.5t0.5 40t1.5 33.5t2 33.5l2.5 27.5t4 29t5.5 25.5q11 54 39 105.5t90 144.5l39 57q18 28 55 78q71 92 142 135q39 25 74 25q38 0 71 -29 q90 -80 90 -243q-3 -135 -74 -295q-69 -147 -159 -228q-7 -7 -49 -16q-24 -5 -78 -27q-28 -13 -42.5 -27t-12 -36.5t29.5 -50.5q24 -14 37 -11q19 2 61 31q15 9 39 16q68 -118 94 -228t33 -238q0 -6 2 -57.5t3 -62.5t4 -53.5t6.5 -60.5t10 -50.5t15.5 -58t21 -51.5 q97 -207 241 -274q58 -29 117 -29q55 0 111 25q103 48 119 121q7 23 7 40q0 33 -26 42q-5 1 -10 1q-33 0 -78 -47q-37 -43 -90 -65q-41 -19 -79 -19q-83 0 -152 89q-81 104 -101 454q-12 132 -22 195q-30 179 -154 401q17 29 72 98q115 146 192 291q74 145 74 272 q0 30 -4 60q-14 86 -79.5 156.5t-147.5 74.5q-6 0 -11 1q-144 0 -319 -195q-69 -75 -125.5 -160t-83.5 -143q-3 42 -3 76q0 17 1 32q0 43 -4 125q-14 144 -80 174q-18 -5 -44.5 -24t-49.5 -45q-42 -44 -42 -74q0 -15 11 -27q22 -16 35 -8q5 3 9 7.5t9 12.5t8.5 14t9.5 17.5 t9 16.5q9 21 26 31q46 -55 46 -204q0 -47 -5 -104q-13 -168 -57 -321q-36 -115 -74 -283q-5 -23 -28.5 -132.5t-36.5 -164.5q-5 -31 -15 -71q-17 -70 -17 -127q0 -14 1 -27zM82 147q2 68 33 181q20 73 32 133l19 92q26 117 49 143q0 -55 2 -110q0 -113 -2 -174 q-4 -237 -16 -277q-6 -14 -17 -33q-20 -36 -49 -37q-2 0 -4 1q-20 2 -34 22.5t-13 58.5z" />
<glyph unicode="S" horiz-adv-x="944" d="M61 80q48 -62 132.5 -105t183.5 -61q58 -11 117 -11q38 1 77 5q99 12 172 53q78 45 115 123q25 53 24 120q0 33 -5 70q-13 84 -86 213q-57 101 -119 181q-8 11 -34 47.5t-36.5 51.5t-33 48.5t-34.5 55.5t-28.5 53.5t-28.5 62t-22 62.5q-33 109 -33 212q0 27 2 54 q10 157 100 194q30 12 56 2q49 -24 75 -88q27 -69 27 -111q0 -11 -2 -20q-9 -42 -51 -92q-41 -44 -41 -90q0 -10 2 -20q6 -30 23.5 -41t43.5 0q27 14 50 63q55 105 55 192q0 24 -4 46q-18 100 -64 158.5t-110 76.5q-25 7 -49 7q-35 0 -71 -14q-60 -24 -104 -85 q-69 -96 -69 -229q0 -68 18 -146q6 -29 15 -56.5t24 -61t23.5 -52.5t31.5 -59.5t29 -51.5t35.5 -60t32.5 -54q72 -122 116 -223.5t60 -208.5q4 -27 4 -51q0 -103 -78 -168q-81 -69 -209 -69q-15 0 -31 1q-46 1 -100 30.5t-96 74.5q-44 47 -56 101q-4 17 -4 35q0 40 19 85 q3 6 13.5 21.5t15.5 25.5q36 59 82 72q26 7 58 -6.5t44 -36.5q14 -25 39 -33q35 -17 58.5 1.5t17.5 55.5q-7 46 -49 71q-39 23 -92 23h-9q-60 -2 -121 -35t-104 -94q-69 -94 -69 -178q0 -72 52 -137z" />
<glyph unicode="T" horiz-adv-x="751" d="M-129 1454q-7 -22 -7 -39q0 -19 9 -29q9 2 17 6t17 13l14.5 14.5t18 21t17.5 21.5q66 78 160 117q96 37 237 37q57 0 121 -6q-52 -90 -67 -234q-11 -112 -11 -267q0 -182 15 -425q12 -200 12 -403q0 -120 -29 -189q-39 -97 -112 -100q-8 4 -15.5 8.5t-13 8.5t-10.5 10 t-8.5 9.5t-8 11.5t-6.5 11t-5.5 12t-4.5 11.5t-4 12t-4 11.5q-14 34 -35 49q-15 11 -43 11q-11 0 -25 -2q-3 -23 -3 -44q0 -61 26 -108q35 -64 94 -90q41 -18 88 -18q22 0 45 4q73 12 124 62.5t71 135.5q26 110 26 288q0 66 -4 142q-8 172 -30 465q-9 102 -9 166 q4 255 121 422q68 -8 154 -35q73 -27 147 -39q48 -8 93 -8q3 1 6 1q48 0 101.5 21t104.5 64q47 38 56 78q4 16 4 30q-1 20 -9 36q-14 27 -46 30q-9 1 -18 -1t-19 -7.5t-17.5 -10t-18.5 -14t-16.5 -14t-17 -15.5t-14.5 -14q-13 -14 -54 -45q-65 -42 -134 -42q-10 0 -21 1 q-77 3 -154 29q-210 67 -309 84q-44 9 -98 9q-47 0 -103 -7q-118 -15 -200 -57q-80 -42 -130 -96t-65 -105z" />
<glyph unicode="U" horiz-adv-x="1191" d="M4 1427.5q3 -17.5 14 -25.5t21 -3q23 9 57 71q17 23 31 29q7 -64 7 -150q0 -28 -1 -59q-1 -124 -20 -522q-6 -136 -9 -229q0 -9 5 -127q7 -171 38 -279q36 -140 119 -194q33 -23 89 -23q13 0 28 1q76 7 145 50q115 70 234 232q50 73 92 120q18 -63 25 -106q6 -39 26 -113 q35 -130 121 -213q48 -45 112 -61q35 -8 68 -8q28 0 54 6q56 11 84 45q17 21 17 46q0 17 -7 36q-7 2 -16 2q-20 0 -48 -12q-51 -23 -82 -29q-20 -5 -39 -5q-85 0 -143 99q-33 47 -74 209q-33 116 -33 192q0 23 3 42q10 45 65 165q65 151 80 195q41 120 59 230q13 80 14 165 q0 32 -2 64q-7 120 -42 241q-23 79 -82 95q-13 3 -25 3q-49 0 -86 -46q-56 -69 -88 -248q-27 -150 -27 -293q0 -140 15 -229q4 -26 22 -158q2 -27 2 -52q0 -47 -8 -89q-13 -64 -61 -152q-58 -103 -154 -199q-115 -112 -206 -112h-5q-51 39 -78 207q-23 128 -34 337 q-7 132 -7 281l7 489q0 121 -23 185q-33 78 -85 78q-21 0 -46 -13q-76 -40 -115 -123q-11 -25 -8 -42.5zM860 940v80q0 133 23 262q24 153 71 227q43 -54 43 -249q0 -196 -30 -365q-33 -190 -80 -240z" />
<glyph unicode="V" horiz-adv-x="1419" d="M4 1583q10 -31 57 -55q18 -12 31 -25q5 -5 33 -90q8 -26 29.5 -97.5t35.5 -117.5q47 -167 170 -592q38 -141 78 -272q63 -215 85 -263q12 -25 24 -42q25 -37 50 -37q26 0 54 39q27 40 62 106q96 186 211 395q179 324 305 519q174 266 262 321l55 37q95 68 115 127 q10 35 -13.5 53t-45.5 -6q-32 -32 -50 -55q-82 -96 -137 -115q0 18 1 35q0 118 -25 174q-29 61 -88 61q-35 0 -80 -22q-83 -42 -83 -133q0 -7 1 -15q6 -89 63 -163l-647 -1104l-350 1263q-6 25 -33 78q-54 84 -113 84q-29 -1 -47 -34t-10 -54zM1202 1487q-1 8 -1 15 q0 54 54 63q3 -22 3 -43q0 -18 -2 -38q-4 -40 -17 -61q-12 0 -23 19.5t-14 44.5z" />
<glyph unicode="W" horiz-adv-x="1339" d="M4 1282l146 180q10 -16 16 -76q6 -80 6 -317q-4 -244 -8 -340q-4 -94 -4 -104q-2 -50 -25 -250q-26 -225 -26 -312q0 -162 43 -192q5 -1 10 -1q33 0 74 36q90 81 184 258q64 121 155 315q12 27 29.5 64.5t20.5 44.5q23 -32 55 -207l31 -158q39 -189 92 -270 q31 -50 72 -50q40 0 90 48q55 55 120 176q55 98 111 326q36 145 82 424q29 178 45 378l8 82q7 98 35 140q24 35 84 39q22 0 37 6q22 6 22 22q0 12 -12 29q-19 26 -47 34q-10 3 -19 3q-21 0 -45 -11q-59 -27 -86 -86q-46 -97 -53 -284q-3 -73 -16 -158q-36 -244 -57 -358 q-48 -236 -101 -385q-68 -190 -149 -244q-11 27 -33 92q-41 120 -86 291q-52 196 -62 299q-3 34 -3 60q0 24 2 41q6 35 32 104q17 54 49 143q68 209 74 316q1 15 1 29q0 143 -93 200q-117 -20 -172 -176q-50 -133 -53 -336v-45q0 -142 16 -287q3 -29 3 -54q0 -33 -5 -59 q-14 -79 -72 -182q-34 -67 -47 -100q-24 -61 -90 -180q-62 -110 -102 -160q-9 99 -9 245q0 128 7 293q9 281 32 539q7 105 7 180q0 50 -3 88q-9 103 -28 144q-21 43 -53 43q-59 0 -134 -101q-64 -87 -94 -178q-12 -40 -4 -51zM725 1038q0 77 16 234q15 182 35 241q2 1 6 15 q10 22 15 24l6 5l2 2q20 -26 20 -101q0 -78 -14 -155q-14 -85 -38 -160t-48 -105z" />
<glyph unicode="X" horiz-adv-x="821" d="M-23 -221q19 -8 46 6q35 15 73 59q65 78 150 238q67 125 125 256q32 70 39 84q18 -35 51 -109q72 -170 145 -303q43 -82 78 -128t84 -81q110 -82 215 -88q33 -2 60.5 14.5t33.5 36.5t-6 35q-7 7 -18.5 13.5t-21.5 11.5t-29 13t-29 12t-35 13t-35 13q-113 38 -192 174 q-79 135 -133 328q-5 17 -14 48.5t-13.5 46t-12.5 44t-9.5 42t-6.5 40.5t-2.5 39.5t2.5 38.5q16 118 84 254q37 72 53 117q32 68 54 122q24 55 57 119q72 130 150 187q32 24 32 45q0 5 -2 9q-7 21 -43 11q-38 -11 -98 -74t-127 -200q-32 -72 -47 -111q-11 -25 -30.5 -75 t-22.5 -58q-71 -174 -105 -229q-24 63 -63 292q-39 225 -70 328q-58 177 -160 191q-9 1 -18 1q-32 0 -62 -16q-38 -21 -63 -57q-26 -35 -28.5 -70t22.5 -57l78 86q7 -5 26 -66q32 -103 92 -344q9 -41 50 -202q56 -238 71 -281q7 -23 7 -50q0 -18 -3 -38q-16 -91 -86 -231 q-61 -120 -129 -232q-21 -36 -51 -86q-10 -23 -55 -72q-6 -8 -19 -22.5t-14 -16.5q-33 -39 -33 -56q0 -12 8 -15z" />
<glyph unicode="Y" horiz-adv-x="1200" d="M-12 1292q10 -33 47 -37q16 0 26 17q12 23 27 96q7 30 21 53q30 56 94 56h6q1 -48 1 -97q0 -146 -7 -295q-15 -244 -17 -393v-16q0 -193 70 -285q58 -76 165 -76q58 0 132 23q90 31 219 129q87 66 168 151q4 -75 4 -128t-4 -84q-14 -76 -84 -146q-102 -97 -207 -229 q-4 -4 -24 -26t-33 -38q-80 -86 -137 -190q-52 -95 -52 -185q0 -22 3 -45q8 -53 40.5 -94.5t73.5 -62.5q58 -32 132 -32q21 0 44 3q98 9 168 66q57 43 97 112q6 11 19.5 34.5t20.5 37.5q81 151 107 350q20 154 20 397v101v116q0 140 11 207q3 27 18 45q33 48 35 62 q1 12 -14.5 29.5t-22.5 17.5q-7 -3 -11.5 -1t-4.5 13q0 1 -4 51q-1 28 -1 58q0 89 9 198q14 169 41 240q10 24 24 43q28 37 28 57q0 8 -5 13q-9 9 -53 6q-62 -6 -100 -59t-62 -146q-28 -111 -41 -379q-1 -14 -2.5 -40.5t-2.5 -40.5t-2.5 -36.5t-3 -35.5t-3 -31t-4 -29.5 t-5 -24.5t-5.5 -22t-7 -16q-28 -51 -117 -140q-94 -91 -200 -151q-101 -57 -176 -57q-15 0 -29 2q-14 32 -17 86q-9 86 -9 217q0 36 1 75q3 145 10 301q3 61 3 95q0 69 2 112q0 53 -7 125q-14 146 -77 178q-28 13 -59 13q-64 0 -136 -58q-93 -75 -133 -180q-12 -30 -12 -54 q0 -14 4 -26zM489 -410q11 136 146 328q111 160 231 287q45 48 68 63q1 -13 4 -62t4 -81q1 -41 1 -80q0 -131 -15 -246q-11 -73 -29.5 -119.5t-56.5 -105.5q-84 -127 -189 -141q-9 -1 -17 -1q-51 0 -98 41q-50 43 -50 104q0 6 1 13z" />
<glyph unicode="Z" horiz-adv-x="1277" d="M10 -45q-10 -40 -10 -71q0 -40 16 -66q28 -46 90 -51q9 -1 18 -1q47 0 100 18q64 20 102 52q25 17 84 107q52 80 73 125q37 -10 78 -35q78 -51 164 -133l57 -56q96 -91 301 -209q110 -61 181 -75q29 -6 59 -6q75 0 152 36q28 13 65 45.5t66 73.5q52 72 52 133 q0 28 -11 54q-41 15 -62 6q-38 -12 -67 -86q-17 -34 -33 -58q-49 -67 -131 -67q-123 0 -205 26q-153 44 -272 156l-107 98q-67 60 -125.5 99t-130.5 61l229 535q43 88 109 233q79 178 182 406l68 -7q30 -6 61 -6h10q60 0 105 33q47 31 65 94q7 24 7 49q0 41 -21 82 q-33 66 -85 84q-22 8 -44 9q-29 0 -59 -15q-52 -21 -97 -66.5t-69 -97.5q-48 14 -92 43q-77 48 -92 56q-120 67 -261 67q-154 0 -196 -78q-14 -28 -14 -57v-11q4 -34 24 -65q18 -29 41.5 -41t44.5 0q6 6 6 31q0 20 -4 53q-4 35 -2 51q2 45 55 45q11 0 23 -2q40 -6 110 -43 q17 -7 64 -30q12 -6 41.5 -21.5t46.5 -23.5q108 -61 133 -76q-163 -357 -168 -369q-22 -49 -51.5 -112.5t-36.5 -79.5q-31 -67 -39 -80q-7 -14 -12 -29l-217 -508q-9 -2 -42.5 -9t-47 -10t-39.5 -10t-45.5 -14t-38.5 -16q-110 -55 -156 -170zM109 -76q-9 12 -10 27 q0 21 20 47q14 22 53 53q63 51 154 51q-8 -17 -35.5 -56t-57.5 -71q-60 -65 -96 -65q-17 0 -28 14zM1079 1395q14 44 45 75q15 13 30.5 15.5t27 -6t16.5 -25.5q7 -23 7 -39q0 -36 -36 -41q-8 -1 -16 -1z" />
<glyph unicode="^" horiz-adv-x="817" d="M2 678q31 -17 96 61q39 51 121 199l62 106q64 110 112 146q25 18 42 8t44 -57q17 -29 133 -248q85 -171 138 -203q29 -19 47 -12.5t18 35.5q0 26 -31 71q-24 37 -108 185q-10 17 -36.5 62t-41.5 71l-76 127q-6 10 -27.5 45t-29.5 51q-17 29 -29 41q-55 -20 -194 -227 q-131 -191 -205 -355q-27 -60 -29 -67q-10 -29 -6 -39z" />
<glyph unicode="_" horiz-adv-x="1314" d="M8 -483q16 -7 82 22q76 29 113 35q109 17 213 20q156 6 485 -2q160 -4 229 -2q121 8 185 97l-1079 -4q-86 -13 -160 -48q-101 -51 -68 -118z" />
<glyph unicode="`" horiz-adv-x="167" d="M0 1255q16 -72 43 -129q37 -80 78 -92q56 50 45 154q-10 91 -62 153q-38 -14 -61 -33t-43 -53z" />
<glyph unicode="a" horiz-adv-x="823" d="M-131 256q-5 -27 -5 -52q0 -36 10 -68q16 -56 54 -91q38 -37 109 -41q10 -1 21 -1q59 0 106 22q95 42 182 133q26 31 70 65q3 -123 14 -162q12 -57 78 -57q82 0 170 94q59 61 168 242l-6 154l-119 -177q-3 -5 -12.5 -17t-14.5 -21q-43 -66 -82 -97q-26 -22 -48 -22 q-14 0 -27 10q-14 10 -17 50v14q0 35 12 75q30 81 76 172q17 39 17 51q-28 13 -58 -4q-43 -25 -116 -127q-25 -39 -64 -88q-44 -57 -121 -108q-74 -50 -131 -49h-12q-73 7 -76 108q0 7 -1 14q0 144 163 279q70 58 154 101t159 63q27 7 54 7q31 0 63 -9q0 39 -43 57 q-22 9 -52 9q-78 0 -210 -62q-169 -83 -303 -211q-141 -135 -162 -256z" />
<glyph unicode="b" horiz-adv-x="1028" d="M-23 473q11 -136 54 -240q57 -138 162 -202q47 -30 92 -30q51 0 102 38q10 8 20.5 18.5l18.5 18.5t20 23.5t17.5 23t19 27t17 25t18.5 28.5t17 26l51 -71q24 -40 55 -76q68 -82 139 -82q68 0 133 98q35 52 80 146l51 112l-10 127l-90 -157q-33 -59 -63 -101 q-49 -63 -82 -71q-11 -2 -21 -2q-55 0 -106 57q-54 61 -72 133q40 66 72 131q36 74 45 137q3 21 3 39q0 62 -34 99q-32 32 -88 32q-28 0 -63 -8q-65 -16 -96 -67.5t-31 -122.5q0 -133 69 -250l2 -2l13 -19q-51 -63 -113 -112q-64 -49 -111 -49q-55 0 -86 67q-33 67 -39 199 q104 49 230 252q114 189 174 405q39 139 39 247q0 71 -17 128q-47 156 -211 156h-16q-140 -8 -233 -242q-82 -200 -113 -483q-22 -199 -22 -326q0 -44 3 -80zM135 535q-2 82 -2.5 167.5t2.5 176.5q7 268 45 430q49 209 146 209q70 0 103.5 -64t33.5 -170q-1 -99 -29 -218.5 t-74 -229.5q-48 -115 -107 -196t-118 -105zM494 567v5q0 48 18 79q18 33 47 43q26 10 50 -8t30 -59q1 -5 1 -10q0 -35 -22 -92q-26 -66 -71 -136q-42 75 -53 178z" />
<glyph unicode="c" horiz-adv-x="786" d="M-33 287q35 -161 176 -244q65 -38 142 -42q10 -1 20 -1q65 0 119 23q117 45 244 172q58 57 125 122l28 201l-96 -96q-57 -60 -135 -125q-188 -154 -309 -154q-55 0 -91.5 28t-52.5 75q-13 40 -14 84q0 58 24 121q46 119 103 182q99 110 231 127q69 11 109 22 q-45 45 -123 45h-10q-87 -2 -179 -47t-176 -129q-82 -85 -118 -184q-23 -64 -24 -121q0 -31 7 -59z" />
<glyph unicode="d" horiz-adv-x="1036" d="M-37 309q-1 -17 -1 -33q0 -70 20 -128q26 -72 84 -113q53 -38 122 -38t154 38q71 31 132.5 82.5t94.5 107.5q53 -115 101 -166q50 -59 101 -59q38 0 77 33q67 58 156 221q38 75 69 127l-29 102q-39 -59 -63 -106q-19 -39 -59 -101q-70 -101 -144 -122q-86 12 -168 153 q178 231 275 625q48 196 49 358q0 42 -4 82q-8 90 -33.5 143.5t-65.5 59.5h-12q-44 0 -84 -25q-64 -41 -135 -155q-90 -140 -139 -361q-39 -165 -39 -323q0 -61 6 -121q6 -71 23 -125q18 -58 49 -121q9 -16 0 -31q-43 -75 -111 -125q-56 -41 -115 -41q-17 0 -34 3 q-124 29 -124 201q0 15 1 32q3 141 78 233q52 63 117 63q32 0 67 -15l10 108q-11 1 -23 1q-156 0 -272 -142q-57 -67 -91 -151.5t-40 -170.5zM487 571q-2 36 -2 74q0 201 68 422q75 252 170 358q29 28 55 28q13 0 25 -7q36 -22 51 -84q10 -46 10 -98q0 -82 -24 -179 q-46 -196 -99 -315q-72 -168 -143 -291q-49 -87 -57 -104q-48 82 -54 196z" />
<glyph unicode="e" horiz-adv-x="636" d="M-45 289q10 -141 90 -215q79 -74 174 -74q67 0 135 45q128 81 232 209q29 35 59 65l6 162v4q-21 -17 -43 -45l-61 -75q-112 -130 -162 -175q-102 -91 -168 -94h-5q-55 0 -91 60l166 182q34 39 64.5 108.5t39.5 135.5q3 21 3 40q0 49 -18 87q-26 52 -95 59q-7 1 -14 1 q-53 0 -107 -40q-61 -45 -111 -123q-48 -74 -74 -160q-21 -69 -21 -130q0 -14 1 -27zM62 325q6 65 28 134q57 173 137 219q39 -39 45 -90q1 -12 1 -23q0 -86 -58 -180q-61 -98 -115 -139q-14 -9 -21 -11.5t-9 1.5q-10 17 -10 56q0 15 2 33z" />
<glyph unicode="f" horiz-adv-x="929" d="M-55 -135q0 -140 14 -223q12 -89 43 -111q26 -11 52 -11q72 0 143 85q73 87 151 272q51 121 107 287q47 -71 94 -113q55 -55 123 -55q38 0 73 27q58 43 107 135q5 9 12.5 22t12 22t8.5 15l55 113l-2 153l-104 -184q-35 -62 -64 -100q-50 -64 -82 -72q-12 -2 -23 -2 q-52 0 -100 53q-53 56 -71 129q96 163 114 277q3 21 3 40q0 62 -33 97q-31 33 -87 33q-29 0 -65 -9q-65 -16 -96 -67.5t-31 -122.5v-10q0 -104 59 -221l-2 4q-45 -163 -131 -346q-95 -202 -168 -275q0 220 11 422q11 275 38 389q4 22 6.5 30t15 26t36.5 38q122 107 233 303 q123 220 123 424q0 103 -45.5 172.5t-112.5 77.5q-8 1 -17 1q-60 0 -122 -64q-61 -61 -129 -369q-60 -273 -104 -653q-45 -385 -45 -639zM86 633q2 3 8 53q1 14 3 31.5t6 42t6 41.5q37 237 55 319q42 206 78 285q36 73 72 74v0q35 0 46 -76q3 -28 3 -61q0 -79 -17 -183 q-26 -161 -86 -301q-72 -160 -174 -225zM381 596q6 38 23 61t38 23q51 0 54 -41q1 -10 1 -21q0 -71 -51 -165q-6 -12 -13.5 -25.5t-10.5 -19.5t-4 -9q-40 77 -40 153q0 22 3 44z" />
<glyph unicode="g" horiz-adv-x="731" d="M-198 -853q7 -77 48 -128q43 -53 113 -69q26 -5 55 -5q51 0 115 17q125 38 217 153q101 127 101 252q0 12 -1 26.5t-2 35t-2 34.5q-1 16 -4 56t-4 63q-9 118 -9 207q0 25 1 47q3 127 39 166l270 322l2 165l-317 -383l6 461q-14 -4 -25.5 -14t-24 -35t-18.5 -38.5 t-22 -53.5q-2 -5 -10.5 -27t-12 -29.5t-11.5 -27t-13 -29.5t-13 -26.5t-14.5 -27.5t-15 -24t-17.5 -24q-67 -81 -153 -81q-25 0 -51 7q-33 40 -33 89q0 48 26 100q25 53 78 125q98 132 146 176q78 72 209 106q-29 12 -63 12q-25 0 -52 -6q-141 -36 -272 -164 q-138 -135 -181 -290q-12 -44 -12 -85q0 -79 45 -147q24 -39 79 -54q31 -8 61 -8l49 5q48 11 86.5 41.5t78.5 81.5q25 34 72 92l-6 -178q-1 -9 -4 -17t-11 -18t-13.5 -16t-20.5 -20.5t-21 -20.5q-139 -154 -245 -291q-144 -187 -199 -338q-25 -72 -25 -136q0 -15 1 -29z M-33 -735q12 72 42.5 146.5t64.5 117.5q51 64 129 170q64 83 135 149l14 -460q0 -74 -33 -145.5t-86 -125.5q-51 -52 -105 -75q-31 -14 -57 -14q-18 0 -34 7q-52 23 -69 86q-8 33 -8 71q0 34 7 73z" />
<glyph unicode="h" horiz-adv-x="960" d="M-14 553l10 -553q20 -5 40 -5q34 0 68 15q1 8 21 78q55 173 88 258q59 152 113 227q28 39 56 41.5t46 -36.5q20 -48 20 -171q0 -57 -4 -131q-2 -22 -2 -43q0 -46 9 -86q11 -59 51.5 -92.5t124.5 -40.5q8 -1 16 -1q93 0 195 114q71 79 141 219l-2 150q-63 -75 -103 -136 q-37 -56 -75 -104t-74.5 -70t-87.5 -22q-19 37 -21 59q-2 15 -2 40q0 34 4 87q2 18 1.5 38t-1.5 44q-3 108 -20 164q-17 43 -54.5 75t-84.5 44q-22 5 -45 5q-24 0 -50 -6q-48 -12 -79 -50q-50 -61 -95 -172q-57 -140 -81 -183v33q-3 25 0 53q0 72 6 80q65 111 114 234 q98 240 129 467q16 114 16 199q0 79 -14 132q-17 65 -66 65q-22 0 -50 -13q-43 -18 -103 -99q-102 -132 -135 -389q-21 -160 -21 -426q0 -45 1 -92zM100 532q0 66 2 121q0 173 15 381q16 225 55 322q19 44 45 44q3 0 6 -1q55 -12 70 -74q8 -37 8 -82q0 -103 -41 -252 q-51 -184 -121 -356q-9 -25 -22.5 -59.5t-16.5 -43.5z" />
<glyph unicode="i" horiz-adv-x="481" d="M-23 385q-2 -30 -2 -58q0 -139 42 -224q50 -103 141 -111h10q69 0 144 78q80 84 180 249v179q-38 -75 -82 -148q-91 -147 -158 -192q-26 -21 -54 -21q-11 0 -22 3q-40 11 -59 65q-10 28 -10.5 75t10.5 113q1 9 20 82q18 69 25 119q6 37 6 64q0 87 -55 87t-93 -108 q-32 -88 -43 -252zM102 975q0 -29 19.5 -48.5t48.5 -19.5t48.5 19.5t19.5 48.5t-19.5 48t-48.5 19t-48.5 -19t-19.5 -48z" />
<glyph unicode="j" horiz-adv-x="382" d="M-416 -610q-37 -97 -37 -180q0 -106 60 -189q45 -61 114.5 -95t143.5 -34q75 0 135 37t88 108q32 78 35 279q0 12 -6 369q-2 59 -2 163q0 74 6 121q4 25 18 51l13 19q4 6 16 18l227 269l-2 161q-82 -94 -162 -196l-55 -70q-21 -24 -37 -28v395q0 92 -16 135 q-20 44 -45 44q-24 0 -51 -50q-27 -53 -27 -137l-6 -508q-3 -20 -27 -64q-50 -90 -147 -225l-92 -135q-116 -180 -144 -258zM-289 -932q-16 16 -16 53q0 56 37 160q52 146 139 313q56 112 113 201q4 -50 4 -114v-162q-3 -200 -13 -281q-5 -42 -31.5 -89t-64.5 -77 q-27 -23 -55 -33t-58.5 -3.5t-54.5 32.5zM31 958q0 -25 18.5 -43t44.5 -18t44 18t18 43q0 26 -18 45t-44 19t-44.5 -19t-18.5 -45z" />
<glyph unicode="k" horiz-adv-x="811" d="M0 512l10 -512q32 -10 59 -10t50 10v72v110q0 76 2 113v82v2l49 72q19 32 63 88q87 102 136 102q7 -28 7 -55q0 -34 -11 -64q-5 -13 -11 -26.5t-11 -23.5t-14 -23.5t-13 -20.5t-14 -21l-12.5 -17.5t-13.5 -18t-12 -15.5q-24 -31 -18 -53l78 16q18 -18 38 -43 q17 -24 17 -75q-1 -4 -1 -14q0 -18 3 -56q9 -86 70 -117q27 -14 56 -14q41 0 85 29q37 22 68.5 53t62.5 77.5t47 74.5t49 90v165q-38 -53 -71 -112q-30 -56 -70 -117q-39 -60 -75.5 -92.5t-76.5 -32.5q-10 0 -17.5 1.5t-13 6.5t-8.5 9t-5 13.5t-3 15t-2 19t-2 19.5 q-5 30 -12.5 51.5t-31.5 51t-62 51.5q53 49 90 104q44 66 57 144q2 19 3 36q0 80 -56 97q-15 5 -32 5q-50 0 -112 -40q-44 -26 -108 -119q68 150 113 326q66 264 66 444q0 49 -5 92q-12 94 -47 103q-12 3 -24 3q-24 0 -50 -12q-45 -22 -100 -94q-101 -133 -139 -413 q-25 -170 -25 -456v-81zM113 489q0 68 2 123q0 137 18 402q16 229 60 342q18 44 48 44q7 0 14 -2q40 -12 54 -75q9 -40 9 -88q0 -109 -44 -264q-73 -252 -122 -377q-10 -28 -23.5 -63t-15.5 -42z" />
<glyph unicode="l" horiz-adv-x="575" d="M-27 629q0 -145 17 -262q25 -171 80 -263q66 -120 190 -120q62 0 107 36q84 66 159 201q9 17 19.5 35t22.5 38l18 30l-2 165q-9 -18 -31 -55.5t-33 -58.5q-86 -154 -151 -219q-51 -51 -99 -51q-37 0 -71 30q-45 34 -86 133q-3 13 -11 36t-10 30q-13 30 2 45q26 34 62 96 q77 145 161 369q86 227 107 426q4 37 4 70q0 150 -82 210q-39 28 -93 28q-19 0 -39 -3q-80 -13 -116 -72q-74 -116 -100 -344q-25 -196 -25 -395v-135zM74 637q0 30 -1 60q0 153 13 337q16 230 68 346q23 57 61 60h3q95 0 95 -156q0 -24 -2 -51q-14 -174 -102 -424 q-80 -227 -133 -297q-2 27 -2 125z" />
<glyph unicode="m" horiz-adv-x="1056" d="M-10 106v-20q0 -48 12 -66q17 -23 39 -20q22 0 43 15.5t28 33.5q10 66 13 250q4 167 27 266q30 125 108 144q26 -15 39 -54q12 -43 12 -114q0 -29 -2 -62l-6 -86q0 -28 -2 -51q-1 -13 -2 -38t-2 -38q-3 -69 -3 -101q0 -16 1 -22q1 -23 14.5 -36t32.5 -13q18 -2 33.5 9.5 t21.5 31.5q15 54 19 213l6 131q3 69 7 99.5t15 60.5q26 70 74 82q27 5 54.5 -18.5t33.5 -71.5q2 -22 2 -49q0 -82 -16 -213q-7 -56 -7 -105q0 -99 29 -162q22 -54 75 -82q41 -22 78 -22q11 0 21 2q75 11 144 100q41 53 104 168q18 34 39 66l-12 147q-59 -95 -64 -104 q-83 -149 -149 -207q-28 -23 -52 -23q-10 0 -20 4q-32 13 -41 56q-8 37 -8 85q0 58 12 132l19 127q8 67 8 115q0 59 -12 90q-33 83 -102 83q-7 0 -15 -1q-66 -8 -137 -76q-71 -64 -99 -113q-1 1 -16 37q-17 50 -51 74q-21 14 -46 17t-44 -7q-34 -19 -68 -53q-16 -16 -26 -21 q-17 104 -60 107q-36 1 -56 -22.5t-22 -55.5q-1 -16 -4 -65.5t-4 -79.5q-9 -155 -12 -326q-1 -25 -2 -75t-2 -73z" />
<glyph unicode="n" horiz-adv-x="866" d="M-63 727q28 -19 40 -61q14 -59 14 -133q0 -35 -3 -74q-3 -24 -8 -97q0 -16 -3 -59q-4 -118 -4 -186v-58q1 -28 15.5 -41.5t34.5 -13.5q47 0 59 45q9 27 12 98q8 127 12 299q2 80 8 113.5t31 65.5q52 71 129 80q6 1 13 1q31 0 57 -21q31 -25 37 -73q3 -25 3 -59 q0 -74 -15 -188q-6 -49 -6 -92q0 -96 32 -162q23 -55 85 -85q44 -22 85 -21q16 0 31 3q96 22 176 133q56 81 109 189q17 37 26 53l-35 106q-37 -70 -73 -116q-34 -44 -70 -107q-17 -33 -39 -61q-45 -61 -88 -72q-26 -7 -51 8.5t-33 53.5q-7 32 -6 73q0 60 14 140 q3 21 10.5 61t10.5 61q10 65 9 114q0 59 -13 95q-39 92 -131 93q-6 0 -13 -1q-81 -5 -186 -77q-99 -71 -125 -119q-3 11 -12 51q-3 14 -17 51q-25 54 -77 62q-8 -17 -23 -35q-14 -21 -22 -37z" />
<glyph unicode="o" horiz-adv-x="897" d="M-53 246q8 -78 51 -137q42 -61 112 -89q48 -20 105 -20q26 0 53 4q94 14 191 74q93 57 129 125h21q136 0 202 37q13 7 24 14t22 16.5t17 15t18 18t15 15.5l6 175q-18 -18 -63 -68q-28 -35 -53 -55q-52 -43 -142 -43h-12q47 80 74 174q25 87 25 147q0 27 -5 49 q-21 95 -125 95q-53 0 -106.5 -56t-81.5 -137q-21 -61 -21 -120q0 -55 24 -114q25 -61 77 -108q-42 -59 -86 -96q-44 -36 -83 -50q-33 -11 -62 -12h-11q-34 2 -63 21q-58 34 -83 114q-14 44 -14 92q0 38 9 79q26 108 100 188q91 94 238 137q-33 29 -81 29q-14 0 -28 -2 q-66 -10 -139 -62q-75 -52 -137.5 -127t-92.5 -157q-26 -70 -26 -134q0 -16 2 -32zM492 539q9 55 36.5 103t59.5 67q37 -37 37 -135q0 -23 -2 -50q-14 -136 -60 -176q-76 37 -75 138q-1 24 4 53z" />
<glyph unicode="p" horiz-adv-x="858" d="M-51 -715q2 -14 15.5 -33t31.5 -32q38 -27 59 -27q6 0 11 2q3 3 6 62q7 150 8 176q7 283 10 530q1 46 2 135.5t2 132.5q1 37 2 109t2 104q0 97 2 113q79 46 144 46q45 0 84 -23q79 -48 108 -183q9 -47 9 -85q0 -62 -23 -103q-123 0 -217 -76q-67 -57 -80 -137 q-2 -16 -2 -30q0 -70 57 -107q28 -15 56 -15q13 0 27 4q42 10 83 46q38 33 68.5 78.5t42.5 84.5q31 -9 69 -32t76 -23q48 0 90 39q71 66 135 201q24 52 43 84v166q-38 -58 -65 -113q-9 -16 -31 -55.5t-33 -59.5q-76 -127 -129 -127q-21 0 -37 4q-20 7 -34 29l-19 18 q18 58 18 124q0 77 -24 163q-47 169 -149 234q-55 36 -118 36t-134 -36l-6 84q-11 11 -31 11q-17 0 -39 -7q-36 -14 -59 -33zM223 -90q5 69 46.5 110.5t113.5 47.5q-2 -11 -7 -22t-8 -17t-12 -16t-11.5 -13t-14.5 -13.5t-13 -11.5q-32 -32 -48 -43.5t-46 -21.5z" />
<glyph unicode="q" horiz-adv-x="1028" d="M-51 254q0 -196 186 -252q23 -4 41 -4q27 0 45 8q53 19 107 80q20 23 49 39q-10 -208 -10 -461q-1 -46 -1 -88q0 -233 19 -373q12 -91 67 -113q15 -6 31 -6q41 0 86 44q5 5 13 45q8 32 28.5 121t30.5 131q21 90 39 155q42 175 76 256l88 217q15 35 47 92q4 9 18 25 q5 7 82 98q15 17 47 58l6 172l-196 -201l-43 -37q-24 -20 -33 -29q-33 -30 -53 -81q-19 -48 -78 -269q-21 -78 -51 -190q-11 -41 -47 -183q-29 -115 -35 -135q-15 -55 -16 -55l-7 221q-1 34 -3 101.5t-3 101.5q-4 132 -4 201q0 101 6 221l2 45q0 2 19 27q41 51 102 155 q57 102 78 197q10 44 10 81q0 47 -16 81q-17 37 -56 55q-15 7 -31 7q-23 0 -46 -15q-67 -58 -107 -213q-41 -156 -47 -254q-3 -52 -13 -77.5t-38 -49.5q-6 -6 -100 -88q-39 8 -70 39q-59 62 -59 163v16q0 97 34 181q18 43 45 78t48 47q5 3 9.5 5t9 2t7.5 0.5t8.5 -1t7 -1.5 t8 -2.5t7.5 -2.5q14 -7 35 2q-1 82 -28 111q-17 19 -40 19q-14 0 -31 -7q-42 -17 -91 -70t-91 -125q-98 -165 -98 -315zM492 416q0 76 14 159q19 110 45 136q18 -24 18 -68q0 -37 -12 -88q-31 -115 -65 -139z" />
<glyph unicode="r" horiz-adv-x="536" d="M6 317q44 55 90 129q59 94 97 140l40 -6q6 -1 21 -2.5t22 -2.5q-10 -21 -32 -51q-10 -12 -39 -53q-51 -72 -103 -184q-53 -116 -53 -185q0 -14 2 -26q14 -76 82 -76q60 0 119 35q112 68 205 188q55 66 86 99l30 200q-16 -16 -88 -102q-104 -130 -137 -168 q-94 -106 -123 -129q-16 -14 -27.5 -21.5t-21 -9t-14 6t-4.5 24.5q0 8 16 45t41 80q57 105 113 203q62 108 88 165q10 19 -16 40.5t-52 21.5h-14h-33q-23 0 -33 2q45 65 51 121q2 10 2 20q-1 24 -11 46q-14 31 -42 51q-30 23 -59 23q-27 0 -53 -21q-48 -39 -58 -117 q-4 -36 -4 -64q0 -78 31 -108q-24 -32 -33 -41l-29 -35q-50 -63 -57 -74v-164zM182 796q6 50 25 56h4q4 0 8 -4q20 -16 17 -35q-10 -43 -43 -94q-12 19 -12 50q-1 13 1 27z" />
<glyph unicode="s" horiz-adv-x="444" d="M-2 471l2 -162l109 152q5 -15 10 -35q7 -27 12 -35q-63 -63 -98 -158q-19 -46 -19 -87q0 -37 15 -70q34 -76 159 -76q106 0 150 57q27 33 27 84q0 58 -35 138q29 -9 58 3.5t65 41.5v163q-59 -55 -119 -67q-11 -2 -21 -2q-54 0 -80 63q24 24 53 68t42 88q9 30 9 54 q0 73 -81 95q-13 3 -26 3q-57 0 -103 -56q-44 -55 -44 -111q0 -15 3 -30zM125 201q5 37 23.5 71.5t41.5 46.5q0 -1 1.5 -2.5t4 -5.5t5.5 -8q1 -2 8.5 -16.5t13.5 -22.5q35 -69 43 -100q8 -40 -6 -61q-12 -18 -47 -18q-7 0 -14 1q-76 16 -77 89q1 12 3 26zM190 582 q-1 13 -1 25q-1 41 15 70q20 36 66 36h2q3 -19 -6 -37q-12 -25 -53 -66q-18 -18 -23 -28z" />
<glyph unicode="t" horiz-adv-x="479" d="M-139 858q6 -32 20 -43q16 -16 52 -16q12 0 26 2q16 2 51 2q-18 -123 -18 -264v-41q0 -215 45 -346q51 -147 152 -147q9 0 18 1q67 28 142.5 115.5t137.5 202.5l5 165q-47 -61 -74 -102q-39 -60 -68 -96q-36 -48 -67.5 -73t-67.5 -25q-39 9 -57 61q-32 78 -32 208 q0 24 1 50q6 144 20 242q1 12 2.5 20t5.5 14t5.5 9.5t9 6l9 3t13 2.5t13.5 2q21 3 47 10q47 12 65 68l-165 -19q6 26 12 84q11 106 18 263q2 43 3.5 88t2.5 89.5t2 63.5v60q-15 -9 -36 -15l-43 -18q-48 -29 -62 -76l-29 -537z" />
<glyph unicode="u" horiz-adv-x="913" d="M-18 332v-14q0 -113 47 -199q60 -109 176 -117q129 0 198 72q48 48 78 155q0 -111 17 -159q25 -71 106 -71q8 0 17 1q62 3 172 133q98 120 129 191l-2 159q-96 -152 -140 -211q-101 -139 -151 -139q-35 0 -47 47q-12 36 -12 92q0 12 1 25l15 362v5q0 44 -16 70 q-16 27 -42 32q-24 5 -43 -12t-20 -47l-19 -326q-1 -22 -24 -92q-50 -133 -182 -133q-64 0 -92 48q-22 39 -22 94q0 14 1 28l6 370q0 36 -18 60t-45 30q-26 5 -46.5 -9.5t-21.5 -45.5z" />
<glyph unicode="v" horiz-adv-x="673" d="M-10 395l33 346q33 35 56 45q12 5 30 5t43 -5q15 -23 15 -98q0 -34 -3 -78q-9 -89 -14 -129q-8 -77 -8 -141.5t8 -116.5q9 -60 34 -92l148 238q-2 -4 -5 5l-5 17q-15 60 -15 155v32q4 155 74 256q27 38 72 56q40 16 74 16h10q39 -2 57 -21q28 -30 28 -86q0 -37 -12 -86 q-23 -98 -71 -207l-25 -60q23 -39 53 -39q15 0 31 9q25 12 86 73l-6 -170q-44 -44 -119 -65q-32 -9 -60 -9q-35 0 -63 15l-162 -188q-20 -24 -36.5 -38t-38 -24.5t-46.5 -8.5t-55 17q-83 44 -104 168q-9 54 -9 114q0 46 5 95zM430 498q29 29 76 151q46 119 46 163q0 6 -1 11 q-48 -48 -84 -137q-37 -85 -37 -174v-14z" />
<glyph unicode="w" horiz-adv-x="1011" d="M-53 176q8 -75 39.5 -122t81.5 -54q5 -1 10 -1q28 0 66 24q46 28 72.5 53t66.5 67q49 49 98 93q4 -134 27 -181q29 -60 103 -60q20 0 44 5q76 13 152 100q66 79 94 164q24 -14 55 -14q28 0 62 12q64 22 104 62q0 40 6 90q6 46 6 88q-57 -57 -90 -70q-15 -6 -28 -6 q-35 0 -58 41l25 59q6 15 39 97q45 130 46 198q0 7 -1 13q-6 91 -94 91q-11 0 -23 -1q-141 -18 -184 -207q-19 -82 -19 -149q1 -22 3 -44q8 -84 55 -182q-31 -99 -64 -141q-38 -47 -85 -48q-15 0 -30 5q-28 22 -34 69q-3 22 -3 48q0 71 23 167q12 56 18 93l9 43q6 26 20 110 q3 14 3 27q0 29 -15 47q-17 21 -36 21q-15 0 -32 -13q-5 -4 -9.5 -10.5t-8 -15.5t-6 -17.5t-5.5 -22.5t-4.5 -23t-4.5 -26.5t-5 -27.5q-6 -35 -22 -101q-29 -121 -60 -164q-52 -78 -102 -135q-67 -77 -109 -77q-9 0 -18 4q-42 23 -42 95q0 37 11 87q14 74 84 258l37 106 q9 29 9 47q0 11 -3 17q-30 9 -58 9q-45 0 -85 -23q-6 -23 -28 -100t-32 -118l-61 -217q-13 -48 -13 -95q0 -22 3 -44zM774 518q0 7 -1 14q0 92 38 177q34 85 84 135q1 -5 1 -11q0 -44 -46 -163q-48 -124 -76 -152z" />
<glyph unicode="x" horiz-adv-x="645" d="M-72.5 -119.5q0.5 -10.5 2.5 -19.5q27 15 58 63q12 18 32 46t23 32l178 240q7 -14 22.5 -48.5t24.5 -52t23 -43t29 -42.5t32 -29q38 -27 75 -27q11 0 21 2q47 10 76 64l135 258v163q0 -1 -2.5 -5.5t-5.5 -10.5l-6 -12q-20 -35 -29 -53q-8 -14 -22.5 -41t-27.5 -50.5 t-25 -42.5q-36 -58 -58 -108q-21 -49 -49 -49q-11 0 -30.5 23t-30.5 48q-29 71 -35 156q0 73 33 117q33 42 63 88q27 39 66 78q71 71 94 82q21 11 72 24q-40 28 -77 28q-18 0 -36 -7q-101 -37 -191 -162q-37 -48 -61 -72q0 30 2 57q2 20 1.5 40t-1.5 40q-8 105 -43 105 q-18 0 -39 -15q-39 -29 -76 -79q-5 -8 -14 -21t-12 -18l-121 -150l2 -170l131 195q13 18 32.5 35.5t29.5 17.5q24 0 24 -38q0 -12 -2 -28q-10 -66 -47 -135q-51 -96 -127 -219l-51 -84q-6 -9 -12.5 -19.5t-10 -15.5t-4.5 -8q-9 -22 -11.5 -29t-9 -25.5t-8.5 -27t-4.5 -22 t-2 -24z" />
<glyph unicode="y" horiz-adv-x="927" d="M-131 -936q35 -67 102.5 -107.5t151.5 -46.5q13 -1 26 -1q75 0 151 29q90 33 169 108q146 134 176 301q9 47 9 115q0 84 -13 200q-1 9 -4.5 41t-5 44t-4 42t-3.5 45.5t-2 43t-0.5 47.5t1.5 45.5t4 49.5q9 41 41 76q53 64 166 144q50 35 92 71l59 224q-58 -54 -104 -93 q-55 -46 -105 -90q-125 -105 -151 -139q0 8 4 90l6 125q9 200 12 221q3 17 3 33q0 57 -29 117q-39 84 -101 104q-28 -205 -96 -340q-34 -76 -72 -141q-68 -114 -114 -156q-43 -37 -79 -37q-27 0 -50 19q-16 26 -16 65q0 11 1 23q10 94 68 252q24 68 39 123q7 29 7 54 q0 36 -14 65q-24 48 -92 90q-56 -151 -92 -293q-51 -203 -51 -318q0 -31 4 -55q17 -129 118 -129q46 0 109 27q78 35 164 163q85 123 113 230q-2 -66 -2 -170q0 -158 -19 -236q-24 -98 -118 -215q-67 -85 -209 -233q-40 -39 -74 -80q-85 -95 -147 -205q-64 -110 -64 -207 q0 -71 35 -135zM53 -649q31 126 109 239q14 22 86 119l65 88q76 103 117 152q22 28 31 31q11 -170 14 -330v-55q0 -170 -16 -271q-14 -75 -74 -160q-67 -94 -135 -122q-27 -11 -52 -11q-56 0 -100 54q-58 70 -58 167q0 46 13 99z" />
<glyph unicode="z" horiz-adv-x="923" d="M-2 311q29 26 55 62l117 141q64 67 133 84q20 4 41 4q30 0 62 -8q21 -5 59 -2q-12 -50 -39 -90q-31 -51 -119 -160q-33 -39 -57 -82q-10 -5 -35 -10l-35 -6q-52 -12 -90 -35q-50 -29 -66 -75q-7 -20 -7 -38q0 -24 12 -43q21 -39 65 -49q12 -3 27 -3q37 0 88 19 q26 11 45 23q35 21 43 29q10 10 20 16q56 -56 103 -70q46 -17 88 -17q44 0 82 19q79 39 151 105q62 57 140 139q13 15 51 53l6 166q-33 -30 -84 -88q-41 -49 -98 -106q-125 -129 -215 -139q-28 -2 -50.5 -2t-41.5 2q-59 7 -87 47q7 26 26.5 59.5t36 56.5t50.5 68 q101 131 139 227q16 42 16 72q0 23 -9 39q-16 25 -55 25q-21 0 -48 -7q-41 -11 -85 -11h-12q-36 0 -61 3h-16q-74 0 -129 -33q-31 -18 -109 -108q-6 -7 -17.5 -21t-17.5 -21t-16 -18.5t-16 -18.5t-14 -15t-14 -13.5t-11 -9.5zM98 113q11 40 40 58q27 17 85 17h6 q-3 -45 -41 -71q-24 -15 -48 -15q-21 0 -42 11z" />
<glyph unicode="{" horiz-adv-x="579" d="M58.5 551q-12.5 -68 9.5 -90q32 -42 137 -25q56 11 88 13q-8 -54 -41 -134q-36 -77 -62 -159q-101 -309 -14 -475q35 -68 93 -94.5t122 -12.5q62 14 110 66.5t66 134.5q-35 -54 -53 -70q-33 -27 -86 -27q-77 1 -109.5 43.5t-37.5 133.5q-7 82 12.5 170.5t60.5 207.5 l68 195q72 210 37 367q-29 127 -107 270q-76 138 -94 268q-10 72 7.5 168t43.5 131q20 32 47 29q22 -4 41 -32.5t31 -65.5q10 17 10 36q0 20 -10 43q-24 50 -74 70q-57 21 -108 -10q-100 -60 -133 -217q-27 -125 37 -264q40 -90 135 -263q72 -132 75 -215q0 -45 -20 -66.5 t-59 -14.5q-109 20 -172 -19q-38 -24 -50.5 -92zM129 527.5q-3 8.5 3 20t18 21.5q45 39 137 15q-12 -40 -56.5 -58.5t-87.5 -7.5q-11 1 -14 9.5z" />
<glyph unicode="}" horiz-adv-x="395" d="M0 -199q15 -82 68 -135q51 -53 112 -68t123 11t98 99t37 190q0 167 -116 456q-31 68 -41 138q52 -4 90 -11q106 -17 139 21q19 25 12.5 80t-28.5 84q-36 49 -111 49q-43 0 -61 -2q-71 -7 -80 2q-32 37 -29 80q0 79 76 221q1 2 67 131q92 176 109 274q12 57 -3 129.5 t-50 132.5q-38 64 -89 94t-108 11q-54 -25 -76 -74q-23 -53 0 -86q8 31 31 70q20 32 43.5 35t50.5 -31q26 -39 44.5 -137t8.5 -170q-23 -142 -98 -273q-42 -79 -63 -131q-71 -167 -54 -325q3 -24 7.5 -50t9 -47t13.5 -51t14 -47t16.5 -51.5t16.5 -47.5t18.5 -51.5 t17.5 -48.5q43 -121 64 -213t14 -176q-6 -95 -38 -135.5t-114 -44.5q-32 0 -55.5 7t-39.5 24t-24 29t-22 38zM281 627q92 23 145 -15q12 -9 17.5 -20t2.5 -19.5t-14 -9.5q-45 -11 -92 9t-59 55z" />
<glyph unicode="~" horiz-adv-x="1705" d="M111 487l34 -18q227 -140 408 -133q51 2 106 16.5t90.5 29t94.5 42.5q116 61 205 80q132 24 274 -17l39 -6l-21 35q-20 39 -53 62q-55 40 -147 40q-48 0 -84 -8q-113 -19 -258 -90q-164 -76 -281 -76q-74 0 -162 37q-29 11 -45.5 16.5t-43.5 10.5t-55.5 3t-61.5 -11z" />
<glyph unicode="&#xa2;" horiz-adv-x="679" d="M6 440q-23 -203 49 -350q91 -178 277 -141v-285q0 -28 8 -41q8 -14 18 -14q13 0 21 14q7 9 10 43l8 127q9 131 11 178q53 23 100 58l43 28q78 51 113 97q13 16 13 33t-8.5 26.5t-17.5 7.5q-24 -5 -51 -49l-16 -25q-5 -8 -10 -15t-9 -12t-10.5 -11.5t-10 -9.5t-12.5 -9 t-11.5 -8t-14 -9.5t-14.5 -9.5q-160 -113 -252 -63q-84 46 -107 193q-24 133 6 305q2 12 23 75q44 125 96 230q66 129 139 178q37 25 80 10t51 -53q13 -68 -24 -156q-17 -39 -17 -41q0 -17 18.5 -21t31.5 5q21 13 47 76q28 68 28 110q-3 57 -67 101q-67 41 -137 32 q9 130 -2 222q-9 47 -35 47q-30 0 -33 -45q-9 -78 -6 -246q-121 -60 -213 -229q-92 -168 -113 -353z" />
<glyph unicode="&#xa3;" horiz-adv-x="1052" d="M0 541q187 -111 319 -74q0 -88 -6 -229q-53 -7 -115 -50t-106 -100q-31 -40 -46 -77.5t-10.5 -72.5t32.5 -59q52 -42 137 -8q32 11 58.5 31t39.5 39q29 38 39 49q22 30 29 45q28 53 35 135q19 -3 61 -45q48 -49 174 -201q17 -22 59 -71q92 -100 193 -82q79 11 133 84 q21 29 25.5 58t-9.5 42q-9 11 -17 14t-17 -4.5t-15 -14.5t-18 -24q-12 -19 -43 -53q-25 -28 -59.5 -34t-71.5 14q-63 32 -156 135q-14 16 -41.5 45t-40.5 45q-103 111 -160 149l-2 269q12 4 21 10l20 8q40 19 67.5 30t69 21t87.5 8t98 -16q-49 79 -174 57q-79 -14 -166 -59 q-5 -1 -13.5 -4.5t-9.5 -3.5l-4 420q-7 67 -8 77q-14 104 -49 162q-35 53 -102 25q-51 -23 -84 -60q-38 -42 -15 -63q13 -12 28.5 -5.5t22.5 21.5q3 13 13 29q20 40 57 49q37 -46 51 -266q8 -131 8 -418q-94 -27 -178 6q-5 2 -21 7.5t-22 7t-20.5 5t-24.5 3.5t-24.5 -1 t-28.5 -5zM146.5 23.5q1.5 42.5 25.5 82.5t62 67t79 28q14 -121 -18 -201q-5 -13 -20 -30.5t-33 -28.5q-48 -31 -72 2q-25 38 -23.5 80.5z" />
<glyph unicode="&#xa9;" horiz-adv-x="1181" d="M0 727q0 -127 45.5 -240t126.5 -200q81 -86 189 -134.5t229 -48.5t228.5 48t191.5 135q81 87 126.5 200t45.5 240q0 125 -45.5 237t-126.5 199q-84 87 -191.5 135t-228.5 48t-229 -48.5t-189 -134.5q-81 -87 -126.5 -199t-45.5 -237zM111 723q0 115 37.5 217t105.5 178 q68 77 156 120.5t186 43.5t187.5 -43.5t158.5 -120.5q67 -76 104 -178.5t37 -216.5q0 -115 -37 -216.5t-104 -176.5q-69 -77 -158.5 -120.5t-187.5 -43.5t-186 43.5t-156 120.5q-143 156 -143 393zM348 723q22 154 101 272q80 124 178 144q42 10 102 -21q53 -31 53 -74 q0 -25 -20 -79q-17 -46 -33 -58q-11 -7 -23 -4t-12 19q0 2 13 28q10 27 16 56q15 78 -43 98q-71 21 -154 -139q-30 -58 -54 -123t-32 -99q-33 -208 21 -307q67 -128 235 -8q31 23 39 27q16 10 29 32q1 1 2 3.5t3 7t5 8.5q16 32 37 35q7 1 13 -5.5t5.5 -18t-8.5 -23.5 q-26 -38 -80 -70l-32 -21q-91 -73 -185 -63q-97 10 -145 109q-57 116 -31 274z" />
<glyph unicode="&#xad;" d="M4 530q10 -3 37 9q23 10 49 14q43 6 94 6q105 -3 211 -12q70 -4 101 -4q56 0 82 39l-472 18q-39 -5 -69 -18q-44 -18 -33 -52z" />
<glyph unicode="&#xae;" horiz-adv-x="1118" d="M0 705q0 -120 43.5 -227t120.5 -189q76 -81 179 -126.5t218 -45.5q113 0 214.5 45.5t178.5 126.5q77 82 120.5 189t43.5 227q0 119 -43.5 225t-120.5 188q-77 81 -178.5 126.5t-214.5 45.5q-115 0 -218 -45.5t-179 -126.5q-77 -82 -120.5 -188t-43.5 -225zM104 705 q0 217 136 372q63 73 147 114.5t176 41.5q95 0 180.5 -41.5t149.5 -114.5q135 -158 135 -372q0 -108 -36 -205.5t-99 -171.5q-64 -74 -149.5 -115t-180.5 -41q-92 0 -176 41.5t-147 114.5q-64 73 -100 171t-36 206zM324 509q0 -9 1.5 -17t4.5 -15q6 -15 18 -18q22 -8 51 10 q23 16 25 66q4 86 4 145v53v72q0 47 21 88q17 33 55 84q15 21 37 43q45 49 77 20q54 -46 29 -143q-27 -91 -80 -135q-3 -4 -16 -6q-38 -8 -49 -27q-6 -11 11 -22t26 -2t24 12q41 -74 45 -170q0 -3 0.5 -15t0.5 -15.5t1 -14.5t1.5 -15t1.5 -14t2 -15t3 -14t4 -15t5 -13.5 t6 -14.5q51 -110 131 -110q29 0 53 16.5t29 36.5q7 26 -7.5 29.5t-31.5 -17.5q-10 -12 -33 -22q-51 -21 -84 26q-24 32 -35 166q-2 27 -10 72q-13 72 -55 145q5 9 43 60q71 90 82 174q4 45 -25 79t-61 34q-54 3 -121 -68q-60 -67 -78 -115v41q0 31 -2 47q-4 55 -29 66 q-1 -1 -4 -2t-6 -2.5t-6 -3.5q-21 -15 -31 -39q-5 -14 8 -22q12 -8 17 9q3 16 14 27q26 -26 19 -110q-5 -60 -25 -117q-19 -71 -47 -213q-1 -3 -3.5 -14t-4 -16.5t-3.5 -15.5t-2.5 -17t-0.5 -16zM354 545q0 28 13 65l6 25q1 3 3 13.5t4.5 22.5t4.5 23q7 42 16 51v-40v-64 q0 -90 -6 -100q-4 -13 -12 -23q-11 -15 -23 5q-6 11 -6 22z" />
<glyph unicode="&#x2c6;" horiz-adv-x="483" d="M2 973q19 -10 49 26t62 95q5 9 18 32t18.5 33.5t16.5 29t18 29t16 23t17 21.5q12 14 20.5 19t17 -1t12.5 -11.5t16 -23.5l36 -63q53 -109 87 -162q21 -32 36 -39q17 -11 28 -8t11 20q0 16 -18 43q-9 9 -25 41q-3 5 -17 28.5t-22 39.5q-5 8 -21 35.5t-24 42.5 q-16 27 -43.5 71t-36.5 60l-16 24q-34 -12 -115 -133q-82 -122 -120 -209l-17 -39q-6 -19 -4 -24z" />
<glyph unicode="&#x2000;" horiz-adv-x="897" />
<glyph unicode="&#x2001;" horiz-adv-x="1795" />
<glyph unicode="&#x2002;" horiz-adv-x="897" />
<glyph unicode="&#x2003;" horiz-adv-x="1795" />
<glyph unicode="&#x2004;" horiz-adv-x="598" />
<glyph unicode="&#x2005;" horiz-adv-x="448" />
<glyph unicode="&#x2006;" horiz-adv-x="299" />
<glyph unicode="&#x2007;" horiz-adv-x="299" />
<glyph unicode="&#x2008;" horiz-adv-x="224" />
<glyph unicode="&#x2009;" horiz-adv-x="359" />
<glyph unicode="&#x200a;" horiz-adv-x="99" />
<glyph unicode="&#x2010;" d="M4 530q10 -3 37 9q23 10 49 14q43 6 94 6q105 -3 211 -12q70 -4 101 -4q56 0 82 39l-472 18q-39 -5 -69 -18q-44 -18 -33 -52z" />
<glyph unicode="&#x2011;" d="M4 530q10 -3 37 9q23 10 49 14q43 6 94 6q105 -3 211 -12q70 -4 101 -4q56 0 82 39l-472 18q-39 -5 -69 -18q-44 -18 -33 -52z" />
<glyph unicode="&#x2012;" d="M4 530q10 -3 37 9q23 10 49 14q43 6 94 6q105 -3 211 -12q70 -4 101 -4q56 0 82 39l-472 18q-39 -5 -69 -18q-44 -18 -33 -52z" />
<glyph unicode="&#x2013;" horiz-adv-x="1079" d="M5 530q18 -3 66 9q41 10 87 14q76 6 167 6q186 -3 375 -12q124 -4 179 -4q100 0 146 39l-839 18q-69 -5 -122 -18q-79 -18 -59 -52z" />
<glyph unicode="&#x2014;" horiz-adv-x="2103" d="M9 530q35 -3 131 9q82 10 174 14q153 6 335 6q373 -3 750 -12q248 -4 359 -4q199 0 291 39l-1678 18q-138 -5 -245 -18q-156 -18 -117 -52z" />
<glyph unicode="&#x2018;" horiz-adv-x="196" d="M0.5 1054q-3.5 -59 15.5 -110q15 -39 41.5 -54t54 -8.5t52.5 27.5q40 40 31 95q-12 61 -99 118q-10 39 25 70q25 22 72 37q-54 19 -96.5 -1t-67.5 -69q-25 -46 -28.5 -105z" />
<glyph unicode="&#x2019;" horiz-adv-x="196" d="M4 924q54 -19 97 1.5t69 69.5q23 46 26 104t-16 109q-15 39 -41.5 54t-53.5 8.5t-52 -27.5q-40 -40 -29 -94q10 -66 96 -119q10 -39 -24 -69q-25 -22 -72 -37z" />
<glyph unicode="&#x201c;" horiz-adv-x="444" d="M0.5 1054q-3.5 -59 15.5 -110q15 -39 41.5 -54t54 -8.5t52.5 27.5q40 40 31 95q-12 61 -99 118q-10 39 25 70q25 22 72 37q-54 19 -96.5 -1t-67.5 -69q-25 -46 -28.5 -105zM248 1054.5q-3 -59.5 16 -110.5q15 -39 41.5 -54t54 -8.5t52.5 27.5q39 39 30 95q-13 62 -98 118 q-10 39 25 70q25 22 71 37q-54 19 -96.5 -1t-67.5 -69q-25 -45 -28 -104.5z" />
<glyph unicode="&#x201d;" horiz-adv-x="450" d="M4 924q54 -19 97 1.5t69 69.5q23 46 26 104t-16 109q-15 39 -41.5 54t-53.5 8.5t-52 -27.5q-40 -40 -29 -94q10 -66 96 -119q10 -39 -24 -69q-25 -22 -72 -37zM258 924q54 -19 97 1.5t69 69.5q23 46 26 104t-16 109q-15 39 -41.5 54t-53.5 8.5t-52 -27.5q-40 -40 -29 -94 q10 -66 96 -119q10 -39 -24 -69q-25 -22 -72 -37z" />
<glyph unicode="&#x202f;" horiz-adv-x="359" />
<glyph unicode="&#x205f;" horiz-adv-x="448" />
<glyph unicode="&#x2122;" horiz-adv-x="876" d="M4 1135q16 3 27 20q9 17 35 37q62 47 192 35q-23 -45 -29 -99q-10 -97 4 -290q5 -137 5 -170q0 -115 -60 -123q-6 2 -11 6t-8 6.5t-6 8.5t-3.5 7.5t-3.5 8.5l-3 8q-5 14 -13.5 19.5t-29.5 4.5q-5 -34 11 -63q32 -55 94 -43q80 12 90 121q9 104 -6 293q-8 65 -8 114 q3 103 51 170q17 -1 65 -14q39 -12 62 -14q70 -10 129 39q18 15 24 34q9 36 -22 39q-3 0 -6 -1t-7 -2.5t-7 -3.5t-8 -5.5t-8.5 -6t-9 -7.5t-8.5 -8t-9.5 -8.5t-10.5 -8.5q-22 -19 -65 -16q-45 2 -127 30q-58 15 -70 17q-38 6 -86 -0.5t-82 -24.5q-67 -34 -82 -84 q-6 -20 0 -26zM350 1081q0 -99 4 -247q0 -27 8 -35q7 -11 17 -8q17 3 29 36q3 31 0 72q-3 40 0 80q4 90 47 100q13 -6 18 -20q8 -27 8 -74v-37v-20v-33q0 -21 2 -31q0 -33 10 -39q5 -3 13 -2q11 1 16 9.5t5.5 16.5t0.5 30v53v55q-3 26 0 41q0 29 33 51q28 21 53 6 q21 -15 21 -55v-90q-2 -60 8 -97t47 -52q55 -21 113 30q41 36 71 90v-2l3 29q-16 -32 -62 -78q-23 -23 -47 -36t-37 -7q-18 7 -23.5 40.5t-5.5 94.5v92q0 45 -10 68q-28 50 -94 21q-25 -12 -49 -35t-33 -39q-2 2 -16 31q-9 18 -31.5 19.5t-34.5 -13.5l-24 -25q-9 45 -29 45 q-31 0 -31 -35z" />
<glyph unicode="&#x25fc;" horiz-adv-x="757" d="M0 0v758h758v-758h-758z" />
</font>
</defs>
</svg>
